<svg xmlns="http://www.w3.org/2000/svg" xmlns:xlink="http://www.w3.org/1999/xlink" width="500" zoomAndPan="magnify" viewBox="0 0 375 374.999991" height="500" preserveAspectRatio="xMidYMid meet" version="1.0"><defs><g/></defs><g fill="#000000" fill-opacity="1"><g transform="translate(22.208544, 187.088507)"><g><path d="M 17.234375 -17.140625 C 15.4375 -17.859375 8.84375 -18.859375 8.84375 -21.59375 C 8.84375 -23.609375 11.3125 -24.203125 12.796875 -24.203125 C 14.140625 -24.203125 15.75 -23.796875 16.609375 -22.984375 C 17.140625 -22.453125 17.375 -22.09375 17.546875 -21.640625 C 17.78125 -21.046875 17.90625 -20.421875 18.765625 -20.421875 L 23.15625 -20.421875 C 24.203125 -20.421875 24.46875 -20.609375 24.46875 -21.6875 C 24.46875 -27.609375 18.21875 -30.21875 12.53125 -30.21875 C 6.90625 -29.984375 1.609375 -27.109375 1.609375 -21.28125 C 1.609375 -15.578125 5.796875 -13.78125 10.328125 -12.34375 C 14.140625 -11.140625 18.140625 -11.09375 18.140625 -8.578125 C 18.140625 -6.0625 16.15625 -5.515625 13.734375 -5.515625 C 12.078125 -5.515625 10.234375 -5.921875 9.34375 -7 C 8.75 -7.671875 8.53125 -8.265625 8.484375 -8.84375 C 8.390625 -9.96875 7.90625 -10.09375 6.875 -10.09375 L 2.515625 -10.09375 C 1.484375 -10.09375 1.21875 -9.875 1.21875 -8.84375 C 1.21875 -2.5625 7.671875 0.671875 13.28125 0.671875 C 20.203125 0.671875 25.234375 -2.375 25.234375 -8.75 C 25.234375 -14.859375 20.46875 -16.15625 17.234375 -17.140625 Z M 17.234375 -17.140625 "/></g></g></g><g fill="#000000" fill-opacity="1"><g transform="translate(49.361859, 187.088507)"><g><path d="M 26.53125 -9.46875 L 26.53125 -20.0625 C 26.53125 -27.15625 19.796875 -30.21875 14.453125 -30.21875 C 9.109375 -30.21875 2.46875 -27.15625 2.46875 -20.0625 L 2.46875 -9.46875 C 2.46875 -2.375 9.109375 0.671875 14.453125 0.671875 C 19.796875 0.671875 26.53125 -2.375 26.53125 -9.46875 Z M 19.484375 -19.4375 L 19.484375 -10.09375 C 19.484375 -7.234375 17.421875 -5.5625 14.453125 -5.5625 C 11.53125 -5.5625 9.46875 -7.234375 9.46875 -10.09375 L 9.46875 -19.4375 C 9.46875 -22.3125 11.53125 -23.96875 14.453125 -23.96875 C 17.421875 -23.96875 19.484375 -22.3125 19.484375 -19.4375 Z M 19.484375 -19.4375 "/></g></g></g><g fill="#000000" fill-opacity="1"><g transform="translate(78.310435, 187.088507)"><g><path d="M 26.078125 -8.75 C 26.078125 -9.828125 25.71875 -10.28125 24.734375 -10.28125 L 20.328125 -10.28125 C 19.34375 -10.28125 19.265625 -9.5625 19.125 -8.65625 C 18.765625 -6.515625 16.828125 -5.609375 14.40625 -5.609375 C 11.453125 -5.609375 9.421875 -7.234375 9.421875 -10.09375 L 9.421875 -19.4375 C 9.421875 -22.265625 11.453125 -23.921875 14.40625 -23.921875 C 16.828125 -23.921875 18.09375 -23.25 19.03125 -21.765625 C 19.390625 -21.234375 19.4375 -20.375 20.375 -20.375 L 24.6875 -20.375 C 25.71875 -20.375 26.078125 -20.609375 26.078125 -21.6875 C 25.5 -27.390625 19.96875 -30.21875 14.40625 -30.21875 C 9.0625 -30.21875 2.375 -27.109375 2.375 -20.0625 L 2.375 -9.46875 C 2.375 -2.421875 9.0625 0.671875 14.40625 0.671875 C 19.96875 0.671875 26.078125 -2.96875 26.078125 -8.75 Z M 26.078125 -8.75 "/></g></g></g><g fill="#000000" fill-opacity="1"><g transform="translate(106.67556, 187.088507)"><g><path d="M 16.15625 -6.15625 L 13.328125 -6.15625 L 13.328125 -23.296875 L 16.03125 -23.296875 C 17.0625 -23.296875 17.328125 -23.796875 17.328125 -24.59375 L 17.328125 -28.234375 C 17.328125 -29.046875 17.0625 -29.53125 16.03125 -29.53125 L 3.546875 -29.53125 C 2.515625 -29.53125 2.25 -29.046875 2.25 -28.234375 L 2.25 -24.59375 C 2.25 -23.796875 2.515625 -23.296875 3.546875 -23.296875 L 6.28125 -23.296875 L 6.28125 -6.15625 L 3.453125 -6.15625 C 2.421875 -6.15625 2.15625 -5.65625 2.15625 -4.84375 L 2.15625 -1.296875 C 2.15625 -0.5 2.421875 0 3.453125 0 L 16.15625 0 C 17.1875 0 17.46875 -0.5 17.46875 -1.296875 L 17.46875 -4.84375 C 17.46875 -5.65625 17.1875 -6.15625 16.15625 -6.15625 Z M 16.15625 -6.15625 "/></g></g></g><g fill="#000000" fill-opacity="1"><g transform="translate(126.602949, 187.088507)"><g><path d="M 28.734375 -1.25 L 18.8125 -28.140625 C 18.40625 -29.09375 17.953125 -29.53125 16.96875 -29.53125 L 12.65625 -29.53125 C 11.671875 -29.53125 11.171875 -29.09375 10.8125 -28.140625 L 0.859375 -1.25 C 0.625 -0.71875 0.625 0 1.609375 0 L 6.328125 0 C 7.3125 0 7.671875 -0.265625 8.03125 -1.34375 L 9.296875 -4.890625 L 20.296875 -4.890625 L 21.546875 -1.34375 C 21.90625 -0.265625 22.265625 0 23.25 0 L 27.96875 0 C 28.953125 0 28.953125 -0.71875 28.734375 -1.25 Z M 14.8125 -21.09375 L 18.1875 -11.171875 L 11.453125 -11.171875 Z M 14.8125 -21.09375 "/></g></g></g><g fill="#000000" fill-opacity="1"><g transform="translate(156.000337, 187.088507)"><g><path d="M 23.296875 -6.28125 L 10.375 -6.28125 L 10.375 -28.234375 C 10.375 -29.265625 9.875 -29.53125 9.0625 -29.53125 L 4.625 -29.53125 C 3.8125 -29.53125 3.328125 -29.265625 3.328125 -28.234375 L 3.328125 -1.296875 C 3.328125 -0.5 3.59375 0 4.625 0 L 23.296875 0 C 24.328125 0 24.59375 -0.5 24.59375 -1.296875 L 24.59375 -4.984375 C 24.59375 -5.796875 24.328125 -6.28125 23.296875 -6.28125 Z M 23.296875 -6.28125 "/></g></g></g><g fill="#000000" fill-opacity="1"><g transform="translate(182.121388, 187.088507)"><g/></g></g><g fill="#000000" fill-opacity="1"><g transform="translate(194.284274, 187.088507)"><g><path d="M 29.8125 -29.578125 L 25.5 -29.578125 C 24.015625 -29.578125 23.796875 -28.59375 23.484375 -28.0625 L 17.28125 -17.015625 L 11.140625 -28.0625 C 10.78125 -28.59375 10.59375 -29.578125 9.0625 -29.578125 L 4.625 -29.578125 C 3.59375 -29.578125 3.328125 -29.09375 3.328125 -28.28125 L 3.328125 -1.296875 C 3.328125 -0.265625 3.8125 0 4.625 0 L 9.0625 0 C 9.875 0 10.375 -0.265625 10.375 -1.296875 L 10.375 -16.515625 L 14.90625 -8.65625 C 15.125 -8.3125 15.484375 -7.71875 16.15625 -7.71875 L 18.40625 -7.71875 C 19.078125 -7.71875 19.484375 -8.3125 19.703125 -8.65625 L 24.203125 -16.515625 L 24.203125 -1.296875 C 24.203125 -0.265625 24.6875 0 25.5 0 L 29.8125 0 C 30.609375 0 31.109375 -0.265625 31.109375 -1.296875 L 31.109375 -28.28125 C 31.109375 -29.09375 30.84375 -29.578125 29.8125 -29.578125 Z M 29.8125 -29.578125 "/></g></g></g><g fill="#000000" fill-opacity="1"><g transform="translate(228.708405, 187.088507)"><g><path d="M 24.734375 -6.28125 L 10.421875 -6.28125 L 10.421875 -12.203125 L 22.453125 -12.203125 C 23.484375 -12.203125 23.75 -12.703125 23.75 -13.515625 L 23.75 -17.015625 C 23.75 -17.828125 23.484375 -18.3125 22.453125 -18.3125 L 10.421875 -18.3125 L 10.421875 -23.203125 L 23.96875 -23.203125 C 25 -23.203125 25.265625 -23.703125 25.265625 -24.515625 L 25.265625 -28.234375 C 25.265625 -29.046875 25 -29.53125 23.96875 -29.53125 L 4.625 -29.53125 C 3.59375 -29.53125 3.328125 -29.046875 3.328125 -28.234375 L 3.328125 -1.296875 C 3.328125 -0.5 3.59375 0 4.625 0 L 24.734375 0 C 25.765625 0 26.03125 -0.5 26.03125 -1.296875 L 26.03125 -4.984375 C 26.03125 -5.796875 25.765625 -6.28125 24.734375 -6.28125 Z M 24.734375 -6.28125 "/></g></g></g><g fill="#000000" fill-opacity="1"><g transform="translate(256.849124, 187.088507)"><g><path d="M 14.671875 -29.53125 L 4.625 -29.53125 C 3.59375 -29.53125 3.328125 -29.046875 3.328125 -28.234375 L 3.328125 -1.296875 C 3.328125 -0.5 3.59375 0 4.625 0 L 14.671875 0 C 20.015625 0 26.75 -3.046875 26.75 -10.09375 L 26.75 -19.4375 C 26.75 -26.4375 20.015625 -29.53125 14.671875 -29.53125 Z M 19.703125 -18.8125 L 19.703125 -10.734375 C 19.703125 -7.859375 17.640625 -6.234375 14.671875 -6.234375 L 10.375 -6.234375 L 10.375 -23.296875 L 14.671875 -23.296875 C 17.640625 -23.296875 19.703125 -21.640625 19.703125 -18.8125 Z M 19.703125 -18.8125 "/></g></g></g><g fill="#000000" fill-opacity="1"><g transform="translate(286.022107, 187.088507)"><g><path d="M 16.15625 -6.15625 L 13.328125 -6.15625 L 13.328125 -23.296875 L 16.03125 -23.296875 C 17.0625 -23.296875 17.328125 -23.796875 17.328125 -24.59375 L 17.328125 -28.234375 C 17.328125 -29.046875 17.0625 -29.53125 16.03125 -29.53125 L 3.546875 -29.53125 C 2.515625 -29.53125 2.25 -29.046875 2.25 -28.234375 L 2.25 -24.59375 C 2.25 -23.796875 2.515625 -23.296875 3.546875 -23.296875 L 6.28125 -23.296875 L 6.28125 -6.15625 L 3.453125 -6.15625 C 2.421875 -6.15625 2.15625 -5.65625 2.15625 -4.84375 L 2.15625 -1.296875 C 2.15625 -0.5 2.421875 0 3.453125 0 L 16.15625 0 C 17.1875 0 17.46875 -0.5 17.46875 -1.296875 L 17.46875 -4.84375 C 17.46875 -5.65625 17.1875 -6.15625 16.15625 -6.15625 Z M 16.15625 -6.15625 "/></g></g></g><g fill="#000000" fill-opacity="1"><g transform="translate(305.949496, 187.088507)"><g><path d="M 28.734375 -1.25 L 18.8125 -28.140625 C 18.40625 -29.09375 17.953125 -29.53125 16.96875 -29.53125 L 12.65625 -29.53125 C 11.671875 -29.53125 11.171875 -29.09375 10.8125 -28.140625 L 0.859375 -1.25 C 0.625 -0.71875 0.625 0 1.609375 0 L 6.328125 0 C 7.3125 0 7.671875 -0.265625 8.03125 -1.34375 L 9.296875 -4.890625 L 20.296875 -4.890625 L 21.546875 -1.34375 C 21.90625 -0.265625 22.265625 0 23.25 0 L 27.96875 0 C 28.953125 0 28.953125 -0.71875 28.734375 -1.25 Z M 14.8125 -21.09375 L 18.1875 -11.171875 L 11.453125 -11.171875 Z M 14.8125 -21.09375 "/></g></g></g><g fill="#000000" fill-opacity="1"><g transform="translate(124.744065, 222.156062)"><g><path d="M 6.90625 0.328125 C 6.101562 -2.085938 5.054688 -5.117188 3.765625 -8.765625 L 3.640625 -8.765625 C 3.640625 -8.628906 3.5625 -7.628906 3.40625 -5.765625 C 3.195312 -3.078125 3.09375 -1.65625 3.09375 -1.5 C 3.09375 -1.132812 3.285156 -0.953125 3.671875 -0.953125 L 4.359375 -0.96875 L 4.40625 -0.875 L 4.234375 0.078125 L 3.765625 0.046875 C 2.898438 0.015625 2.421875 0 2.328125 0 C 2.054688 0 1.738281 0.0195312 1.375 0.0625 C 1.019531 0.101562 0.789062 0.128906 0.6875 0.140625 L 0.78125 -0.84375 C 1.144531 -0.875 1.40625 -0.984375 1.5625 -1.171875 C 1.726562 -1.367188 1.84375 -1.707031 1.90625 -2.1875 C 2.019531 -3.21875 2.171875 -4.671875 2.359375 -6.546875 C 2.554688 -8.421875 2.65625 -9.460938 2.65625 -9.671875 C 2.65625 -9.992188 2.546875 -10.222656 2.328125 -10.359375 C 2.109375 -10.503906 1.734375 -10.59375 1.203125 -10.625 L 1.125 -10.734375 L 1.265625 -11.546875 C 2.160156 -11.484375 2.851562 -11.453125 3.34375 -11.453125 C 3.4375 -11.453125 3.820312 -11.46875 4.5 -11.5 L 4.890625 -11.53125 C 5.546875 -9.320312 6.363281 -6.785156 7.34375 -3.921875 L 7.578125 -3.265625 L 7.6875 -3.265625 C 7.832031 -3.679688 7.945312 -4.007812 8.03125 -4.25 C 8.9375 -6.832031 9.753906 -9.242188 10.484375 -11.484375 C 10.628906 -11.484375 10.753906 -11.476562 10.859375 -11.46875 C 11.398438 -11.445312 11.804688 -11.441406 12.078125 -11.453125 C 12.335938 -11.453125 12.703125 -11.46875 13.171875 -11.5 C 13.640625 -11.539062 13.910156 -11.5625 13.984375 -11.5625 L 14.03125 -11.484375 L 13.921875 -10.640625 C 13.410156 -10.585938 13.050781 -10.488281 12.84375 -10.34375 C 12.644531 -10.195312 12.546875 -9.972656 12.546875 -9.671875 C 12.546875 -9.347656 12.597656 -8.382812 12.703125 -6.78125 C 12.816406 -5.175781 12.921875 -3.785156 13.015625 -2.609375 C 13.054688 -2.148438 13.109375 -1.800781 13.171875 -1.5625 C 13.234375 -1.332031 13.316406 -1.171875 13.421875 -1.078125 C 13.523438 -0.992188 13.675781 -0.953125 13.875 -0.953125 C 13.976562 -0.953125 14.082031 -0.957031 14.1875 -0.96875 C 14.300781 -0.976562 14.363281 -0.984375 14.375 -0.984375 L 14.421875 -0.890625 L 14.265625 0.046875 C 14.203125 0.046875 13.96875 0.0351562 13.5625 0.015625 C 13.164062 0.00390625 12.820312 0 12.53125 0 C 12.09375 0 11.625 0.0195312 11.125 0.0625 C 10.625 0.113281 10.363281 0.140625 10.34375 0.140625 L 10.453125 -0.84375 C 10.804688 -0.882812 11.0625 -0.972656 11.21875 -1.109375 C 11.382812 -1.253906 11.46875 -1.460938 11.46875 -1.734375 C 11.46875 -1.878906 11.429688 -2.453125 11.359375 -3.453125 C 11.285156 -4.460938 11.226562 -5.285156 11.1875 -5.921875 C 11.039062 -7.734375 10.96875 -8.679688 10.96875 -8.765625 L 10.84375 -8.765625 C 9.53125 -5.117188 8.476562 -2.140625 7.6875 0.171875 Z M 6.90625 0.328125 "/></g></g></g><g fill="#000000" fill-opacity="1"><g transform="translate(143.453466, 222.156062)"><g><path d="M 6.75 0.21875 C 5.726562 0.21875 5.171875 -0.253906 5.078125 -1.203125 L 4.96875 -1.234375 C 4.550781 -0.816406 4.164062 -0.484375 3.8125 -0.234375 C 3.457031 0.015625 3.1875 0.140625 3 0.140625 C 2.3125 0.140625 1.742188 -0.0820312 1.296875 -0.53125 C 0.847656 -0.988281 0.625 -1.554688 0.625 -2.234375 C 0.625 -2.609375 0.710938 -2.925781 0.890625 -3.1875 C 1.078125 -3.445312 1.316406 -3.617188 1.609375 -3.703125 L 5.03125 -4.59375 L 5.046875 -5.21875 C 5.046875 -5.78125 4.910156 -6.210938 4.640625 -6.515625 C 4.367188 -6.828125 3.988281 -6.984375 3.5 -6.984375 C 3.175781 -6.984375 2.828125 -6.90625 2.453125 -6.75 C 2.085938 -6.601562 1.722656 -6.390625 1.359375 -6.109375 L 1.25 -6.1875 L 0.984375 -7.078125 C 1.546875 -7.410156 2.132812 -7.710938 2.75 -7.984375 C 3.363281 -8.253906 3.8125 -8.390625 4.09375 -8.390625 C 4.957031 -8.390625 5.625 -8.175781 6.09375 -7.75 C 6.5625 -7.320312 6.796875 -6.742188 6.796875 -6.015625 C 6.796875 -5.878906 6.75 -5.34375 6.65625 -4.40625 C 6.519531 -3.144531 6.453125 -2.375 6.453125 -2.09375 C 6.453125 -1.851562 6.507812 -1.660156 6.625 -1.515625 C 6.75 -1.378906 6.925781 -1.3125 7.15625 -1.3125 C 7.320312 -1.3125 7.492188 -1.351562 7.671875 -1.4375 C 7.859375 -1.519531 8.007812 -1.609375 8.125 -1.703125 L 8.390625 -1.359375 C 8.191406 -1.023438 7.941406 -0.703125 7.640625 -0.390625 C 7.347656 -0.078125 7.050781 0.125 6.75 0.21875 Z M 3.453125 -1.296875 C 3.660156 -1.296875 3.898438 -1.363281 4.171875 -1.5 C 4.453125 -1.632812 4.703125 -1.800781 4.921875 -2 L 5 -3.765625 L 2.8125 -3.140625 C 2.488281 -3.023438 2.328125 -2.796875 2.328125 -2.453125 C 2.328125 -2.117188 2.429688 -1.84375 2.640625 -1.625 C 2.847656 -1.40625 3.117188 -1.296875 3.453125 -1.296875 Z M 3.453125 -1.296875 "/></g></g></g><g fill="#000000" fill-opacity="1"><g transform="translate(155.532138, 222.156062)"><g><path d="M 0.9375 -0.8125 C 1.289062 -0.84375 1.523438 -0.953125 1.640625 -1.140625 C 1.765625 -1.328125 1.828125 -1.675781 1.828125 -2.1875 L 1.828125 -5.953125 C 1.828125 -6.359375 1.769531 -6.640625 1.65625 -6.796875 C 1.550781 -6.960938 1.367188 -7.046875 1.109375 -7.046875 C 1.023438 -7.046875 0.945312 -7.035156 0.875 -7.015625 C 0.8125 -7.003906 0.769531 -6.992188 0.75 -6.984375 L 0.65625 -7.109375 L 0.734375 -7.828125 C 1.285156 -7.921875 1.847656 -8.03125 2.421875 -8.15625 C 2.992188 -8.289062 3.363281 -8.375 3.53125 -8.40625 L 3.671875 -8.28125 C 3.648438 -8.175781 3.613281 -7.9375 3.5625 -7.5625 C 3.519531 -7.1875 3.503906 -6.832031 3.515625 -6.5 L 3.578125 -6.453125 C 3.953125 -7.003906 4.367188 -7.445312 4.828125 -7.78125 C 5.296875 -8.125 5.722656 -8.296875 6.109375 -8.296875 C 6.265625 -8.296875 6.394531 -8.285156 6.5 -8.265625 C 6.613281 -8.253906 6.679688 -8.238281 6.703125 -8.21875 L 6.75 -8.125 C 6.71875 -7.9375 6.660156 -7.539062 6.578125 -6.9375 C 6.503906 -6.34375 6.457031 -5.78125 6.4375 -5.25 L 5.53125 -5.203125 C 5.53125 -5.722656 5.5 -6.066406 5.4375 -6.234375 C 5.375 -6.398438 5.242188 -6.484375 5.046875 -6.484375 C 4.816406 -6.484375 4.570312 -6.394531 4.3125 -6.21875 C 4.050781 -6.039062 3.804688 -5.789062 3.578125 -5.46875 C 3.566406 -5.132812 3.539062 -4.570312 3.5 -3.78125 C 3.457031 -3 3.429688 -2.375 3.421875 -1.90625 C 3.421875 -1.539062 3.476562 -1.289062 3.59375 -1.15625 C 3.707031 -1.019531 3.921875 -0.953125 4.234375 -0.953125 C 4.398438 -0.953125 4.5625 -0.957031 4.71875 -0.96875 C 4.882812 -0.988281 4.992188 -1 5.046875 -1 L 5.09375 -0.90625 L 4.90625 0.046875 C 4.769531 0.0351562 4.503906 0.0234375 4.109375 0.015625 C 3.710938 0.00390625 3.300781 0 2.875 0 C 2.425781 0 2 0.00390625 1.59375 0.015625 C 1.1875 0.0351562 0.929688 0.0546875 0.828125 0.078125 Z M 0.9375 -0.8125 "/></g></g></g><g fill="#000000" fill-opacity="1"><g transform="translate(166.212981, 222.156062)"><g><path d="M 0.53125 -0.78125 C 0.832031 -0.832031 1.046875 -0.914062 1.171875 -1.03125 C 1.296875 -1.144531 1.375 -1.296875 1.40625 -1.484375 C 1.4375 -1.679688 1.453125 -1.992188 1.453125 -2.421875 L 1.453125 -10.984375 C 1.453125 -11.617188 1.253906 -11.941406 0.859375 -11.953125 L 0.765625 -11.953125 C 0.648438 -11.953125 0.550781 -11.945312 0.46875 -11.9375 C 0.382812 -11.925781 0.320312 -11.921875 0.28125 -11.921875 L 0.296875 -12.203125 L 0.359375 -12.765625 C 0.941406 -12.835938 1.554688 -12.9375 2.203125 -13.0625 C 2.847656 -13.1875 3.265625 -13.265625 3.453125 -13.296875 L 3.5625 -13.015625 C 3.4375 -12.804688 3.316406 -11.582031 3.203125 -9.34375 C 3.097656 -7.113281 3.046875 -4.601562 3.046875 -1.8125 C 3.046875 -1.476562 3.085938 -1.238281 3.171875 -1.09375 C 3.265625 -0.957031 3.421875 -0.890625 3.640625 -0.890625 C 3.742188 -0.890625 3.851562 -0.894531 3.96875 -0.90625 C 4.082031 -0.925781 4.15625 -0.9375 4.1875 -0.9375 L 4.25 -0.84375 L 4.0625 0.078125 C 3.945312 0.0546875 3.71875 0.0351562 3.375 0.015625 C 3.039062 0.00390625 2.679688 0 2.296875 0 C 1.960938 0 1.597656 0.015625 1.203125 0.046875 C 0.804688 0.078125 0.550781 0.0976562 0.4375 0.109375 Z M 3.453125 -4.53125 L 5.40625 -6.453125 C 5.5625 -6.597656 5.664062 -6.710938 5.71875 -6.796875 C 5.78125 -6.878906 5.8125 -6.96875 5.8125 -7.0625 C 5.8125 -7.195312 5.734375 -7.289062 5.578125 -7.34375 C 5.429688 -7.40625 5.191406 -7.4375 4.859375 -7.4375 L 4.796875 -7.53125 L 4.96875 -8.203125 C 5.09375 -8.203125 5.34375 -8.195312 5.71875 -8.1875 C 6.101562 -8.175781 6.503906 -8.171875 6.921875 -8.171875 C 7.234375 -8.171875 7.582031 -8.1875 7.96875 -8.21875 C 8.351562 -8.25 8.609375 -8.269531 8.734375 -8.28125 L 8.78125 -8.1875 L 8.625 -7.421875 C 8.164062 -7.265625 7.703125 -7 7.234375 -6.625 C 6.773438 -6.25 6.234375 -5.75 5.609375 -5.125 C 5.265625 -4.78125 5.09375 -4.609375 5.09375 -4.609375 L 6.8125 -2.21875 C 7.164062 -1.726562 7.5 -1.375 7.8125 -1.15625 C 8.132812 -0.945312 8.472656 -0.832031 8.828125 -0.8125 L 8.890625 -0.703125 L 8.78125 -0.015625 C 8.675781 0.00390625 8.460938 0.0507812 8.140625 0.125 C 7.828125 0.195312 7.597656 0.238281 7.453125 0.25 C 7.222656 0.25 6.988281 0.203125 6.75 0.109375 C 6.53125 0.0234375 6.316406 -0.113281 6.109375 -0.3125 C 5.910156 -0.519531 5.671875 -0.832031 5.390625 -1.25 L 3.421875 -4.1875 Z M 3.453125 -4.53125 "/></g></g></g><g fill="#000000" fill-opacity="1"><g transform="translate(178.86513, 222.156062)"><g><path d="M 4.46875 0.21875 C 3.269531 0.21875 2.316406 -0.144531 1.609375 -0.875 C 0.910156 -1.613281 0.5625 -2.59375 0.5625 -3.8125 C 0.5625 -4.632812 0.742188 -5.394531 1.109375 -6.09375 C 1.472656 -6.800781 1.96875 -7.359375 2.59375 -7.765625 C 3.21875 -8.179688 3.898438 -8.390625 4.640625 -8.390625 C 5.578125 -8.390625 6.28125 -8.148438 6.75 -7.671875 C 7.226562 -7.203125 7.46875 -6.507812 7.46875 -5.59375 C 7.46875 -5.21875 7.429688 -4.898438 7.359375 -4.640625 L 7.140625 -4.4375 L 2.328125 -4.4375 C 2.328125 -3.414062 2.546875 -2.628906 2.984375 -2.078125 C 3.421875 -1.523438 4.039062 -1.25 4.84375 -1.25 C 5.507812 -1.25 6.222656 -1.429688 6.984375 -1.796875 L 7.09375 -1.734375 L 7.34375 -1.0625 C 6.914062 -0.738281 6.425781 -0.441406 5.875 -0.171875 C 5.320312 0.0859375 4.851562 0.21875 4.46875 0.21875 Z M 5.25 -5.390625 C 5.40625 -5.398438 5.507812 -5.4375 5.5625 -5.5 C 5.613281 -5.5625 5.640625 -5.675781 5.640625 -5.84375 C 5.640625 -6.300781 5.523438 -6.648438 5.296875 -6.890625 C 5.078125 -7.140625 4.75 -7.265625 4.3125 -7.265625 C 3.800781 -7.265625 3.367188 -7.085938 3.015625 -6.734375 C 2.660156 -6.378906 2.441406 -5.882812 2.359375 -5.25 Z M 5.25 -5.390625 "/></g></g></g><g fill="#000000" fill-opacity="1"><g transform="translate(190.585376, 222.156062)"><g><path d="M 3.6875 0.21875 C 2.851562 0.21875 2.253906 0.046875 1.890625 -0.296875 C 1.535156 -0.640625 1.359375 -1.195312 1.359375 -1.96875 L 1.359375 -6.203125 C 1.359375 -6.546875 1.289062 -6.78125 1.15625 -6.90625 C 1.019531 -7.03125 0.753906 -7.097656 0.359375 -7.109375 L 0.25 -7.234375 L 0.34375 -7.921875 C 0.738281 -8.109375 1.125 -8.332031 1.5 -8.59375 C 1.882812 -8.863281 2.203125 -9.097656 2.453125 -9.296875 C 2.703125 -9.492188 2.859375 -9.617188 2.921875 -9.671875 L 3.34375 -9.5 C 3.332031 -9.4375 3.304688 -9.28125 3.265625 -9.03125 C 3.234375 -8.789062 3.203125 -8.460938 3.171875 -8.046875 L 5.578125 -8.09375 L 5.640625 -8.046875 L 5.46875 -6.96875 L 3.09375 -7.03125 C 3.007812 -5.75 2.96875 -4.34375 2.96875 -2.8125 C 2.96875 -2.25 3.066406 -1.84375 3.265625 -1.59375 C 3.460938 -1.351562 3.796875 -1.234375 4.265625 -1.234375 C 4.429688 -1.234375 4.597656 -1.253906 4.765625 -1.296875 C 4.929688 -1.347656 5.070312 -1.394531 5.1875 -1.4375 C 5.300781 -1.488281 5.375 -1.523438 5.40625 -1.546875 L 5.609375 -1.015625 C 5.535156 -0.960938 5.375 -0.835938 5.125 -0.640625 C 4.882812 -0.441406 4.617188 -0.25 4.328125 -0.0625 C 4.046875 0.125 3.832031 0.21875 3.6875 0.21875 Z M 3.6875 0.21875 "/></g></g></g><g fill="#000000" fill-opacity="1"><g transform="translate(200.101355, 222.156062)"><g><path d="M 0.75 -0.703125 C 1.113281 -0.796875 1.367188 -0.925781 1.515625 -1.09375 C 1.671875 -1.269531 1.75 -1.519531 1.75 -1.84375 L 1.75 -6.09375 C 1.75 -6.4375 1.695312 -6.6875 1.59375 -6.84375 C 1.488281 -7 1.3125 -7.078125 1.0625 -7.078125 C 0.988281 -7.078125 0.898438 -7.066406 0.796875 -7.046875 C 0.703125 -7.035156 0.644531 -7.019531 0.625 -7 L 0.703125 -7.828125 C 1.285156 -7.910156 1.878906 -8.015625 2.484375 -8.140625 C 3.085938 -8.265625 3.476562 -8.347656 3.65625 -8.390625 L 3.78125 -8.140625 C 3.664062 -7.890625 3.566406 -7.144531 3.484375 -5.90625 C 3.410156 -4.664062 3.375 -3.300781 3.375 -1.8125 C 3.375 -1.488281 3.414062 -1.253906 3.5 -1.109375 C 3.59375 -0.972656 3.742188 -0.90625 3.953125 -0.90625 C 4.078125 -0.90625 4.195312 -0.910156 4.3125 -0.921875 C 4.425781 -0.941406 4.5 -0.953125 4.53125 -0.953125 L 4.5625 -0.859375 L 4.421875 0.046875 C 4.304688 0.0351562 4.078125 0.0234375 3.734375 0.015625 C 3.390625 0.00390625 3.03125 0 2.65625 0 C 2.320312 0 1.9375 0.0234375 1.5 0.078125 C 1.0625 0.140625 0.773438 0.1875 0.640625 0.21875 Z M 2.4375 -10.234375 C 2.101562 -10.234375 1.84375 -10.332031 1.65625 -10.53125 C 1.476562 -10.738281 1.390625 -11 1.390625 -11.3125 C 1.390625 -11.664062 1.503906 -11.957031 1.734375 -12.1875 C 1.960938 -12.425781 2.253906 -12.546875 2.609375 -12.546875 C 2.929688 -12.546875 3.1875 -12.441406 3.375 -12.234375 C 3.5625 -12.035156 3.65625 -11.78125 3.65625 -11.46875 C 3.65625 -11.113281 3.539062 -10.816406 3.3125 -10.578125 C 3.082031 -10.347656 2.789062 -10.234375 2.4375 -10.234375 Z M 2.4375 -10.234375 "/></g></g></g><g fill="#000000" fill-opacity="1"><g transform="translate(208.828818, 222.156062)"><g><path d="M 5.8125 -0.71875 C 6.132812 -0.8125 6.363281 -0.941406 6.5 -1.109375 C 6.644531 -1.273438 6.71875 -1.507812 6.71875 -1.8125 L 6.796875 -5.15625 C 6.796875 -5.71875 6.679688 -6.144531 6.453125 -6.4375 C 6.222656 -6.726562 5.890625 -6.875 5.453125 -6.875 C 4.898438 -6.875 4.257812 -6.609375 3.53125 -6.078125 C 3.5 -5.328125 3.472656 -4.835938 3.453125 -4.609375 C 3.378906 -3.078125 3.34375 -2.148438 3.34375 -1.828125 C 3.34375 -1.492188 3.390625 -1.253906 3.484375 -1.109375 C 3.578125 -0.972656 3.734375 -0.90625 3.953125 -0.90625 C 4.066406 -0.90625 4.179688 -0.910156 4.296875 -0.921875 C 4.410156 -0.941406 4.484375 -0.953125 4.515625 -0.953125 L 4.546875 -0.875 L 4.390625 0.046875 C 4.273438 0.0351562 4.046875 0.0234375 3.703125 0.015625 C 3.359375 0.00390625 3.003906 0 2.640625 0 C 2.285156 0 1.898438 0.015625 1.484375 0.046875 C 1.078125 0.078125 0.816406 0.0976562 0.703125 0.109375 L 0.828125 -0.8125 C 1.171875 -0.851562 1.410156 -0.945312 1.546875 -1.09375 C 1.679688 -1.25 1.75 -1.492188 1.75 -1.828125 L 1.75 -5.953125 C 1.75 -6.359375 1.6875 -6.640625 1.5625 -6.796875 C 1.4375 -6.953125 1.210938 -7.03125 0.890625 -7.03125 L 0.6875 -7.03125 L 0.609375 -7.109375 L 0.6875 -7.84375 C 1.269531 -7.925781 1.847656 -8.03125 2.421875 -8.15625 C 3.003906 -8.289062 3.378906 -8.375 3.546875 -8.40625 L 3.671875 -8.25 C 3.648438 -8.175781 3.613281 -8.019531 3.5625 -7.78125 C 3.519531 -7.539062 3.492188 -7.296875 3.484375 -7.046875 L 3.53125 -6.96875 C 3.863281 -7.25 4.304688 -7.554688 4.859375 -7.890625 C 5.410156 -8.222656 5.796875 -8.390625 6.015625 -8.390625 C 6.816406 -8.390625 7.441406 -8.179688 7.890625 -7.765625 C 8.347656 -7.359375 8.578125 -6.796875 8.578125 -6.078125 C 8.578125 -5.785156 8.535156 -5.195312 8.453125 -4.3125 C 8.347656 -2.914062 8.296875 -2.09375 8.296875 -1.84375 C 8.296875 -1.507812 8.34375 -1.265625 8.4375 -1.109375 C 8.53125 -0.960938 8.6875 -0.890625 8.90625 -0.890625 C 9.03125 -0.890625 9.144531 -0.894531 9.25 -0.90625 C 9.363281 -0.925781 9.445312 -0.9375 9.5 -0.9375 L 9.53125 -0.859375 L 9.375 0.046875 C 9.25 0.0351562 9.019531 0.0234375 8.6875 0.015625 C 8.351562 0.00390625 8.003906 0 7.640625 0 C 7.328125 0 6.960938 0.0195312 6.546875 0.0625 C 6.128906 0.113281 5.851562 0.148438 5.71875 0.171875 Z M 5.8125 -0.71875 "/></g></g></g><g fill="#000000" fill-opacity="1"><g transform="translate(222.341151, 222.156062)"><g><path d="M 7.203125 -7.390625 L 7.140625 -7.296875 C 7.609375 -6.765625 7.84375 -6.160156 7.84375 -5.484375 C 7.84375 -4.898438 7.679688 -4.363281 7.359375 -3.875 C 7.035156 -3.394531 6.59375 -3.015625 6.03125 -2.734375 C 5.476562 -2.453125 4.859375 -2.3125 4.171875 -2.3125 C 3.804688 -2.3125 3.441406 -2.359375 3.078125 -2.453125 C 2.671875 -2.179688 2.46875 -1.9375 2.46875 -1.71875 C 2.46875 -1.46875 2.644531 -1.289062 3 -1.1875 C 3.363281 -1.09375 3.9375 -1 4.71875 -0.90625 C 5.5 -0.8125 6.140625 -0.710938 6.640625 -0.609375 C 7.140625 -0.503906 7.566406 -0.316406 7.921875 -0.046875 C 8.273438 0.222656 8.453125 0.601562 8.453125 1.09375 C 8.453125 1.632812 8.234375 2.15625 7.796875 2.65625 C 7.367188 3.15625 6.800781 3.5625 6.09375 3.875 C 5.382812 4.1875 4.648438 4.34375 3.890625 4.34375 C 2.992188 4.34375 2.28125 4.125 1.75 3.6875 C 1.226562 3.25 0.96875 2.65625 0.96875 1.90625 C 1.125 1.707031 1.363281 1.46875 1.6875 1.1875 C 2.019531 0.914062 2.367188 0.65625 2.734375 0.40625 L 2.734375 0.296875 C 2.140625 0.191406 1.679688 -0.0078125 1.359375 -0.3125 C 1.035156 -0.613281 0.863281 -1.003906 0.84375 -1.484375 C 1.289062 -1.941406 1.785156 -2.335938 2.328125 -2.671875 L 2.328125 -2.765625 C 1.898438 -3.015625 1.566406 -3.335938 1.328125 -3.734375 C 1.097656 -4.140625 0.984375 -4.597656 0.984375 -5.109375 C 0.984375 -5.710938 1.140625 -6.265625 1.453125 -6.765625 C 1.765625 -7.273438 2.1875 -7.675781 2.71875 -7.96875 C 3.257812 -8.257812 3.851562 -8.40625 4.5 -8.40625 C 4.757812 -8.40625 5.101562 -8.367188 5.53125 -8.296875 C 5.832031 -8.234375 6.085938 -8.203125 6.296875 -8.203125 C 6.804688 -8.265625 7.632812 -8.457031 8.78125 -8.78125 L 8.859375 -8.6875 L 8.640625 -7.53125 Z M 4.53125 -3.28125 C 5.03125 -3.28125 5.414062 -3.441406 5.6875 -3.765625 C 5.96875 -4.085938 6.109375 -4.539062 6.109375 -5.125 C 6.109375 -5.769531 5.941406 -6.289062 5.609375 -6.6875 C 5.285156 -7.09375 4.847656 -7.296875 4.296875 -7.296875 C 3.804688 -7.296875 3.421875 -7.128906 3.140625 -6.796875 C 2.859375 -6.472656 2.71875 -6.007812 2.71875 -5.40625 C 2.71875 -4.757812 2.878906 -4.242188 3.203125 -3.859375 C 3.535156 -3.472656 3.976562 -3.28125 4.53125 -3.28125 Z M 3.671875 0.484375 C 3.390625 0.703125 3.164062 0.941406 3 1.203125 C 2.84375 1.472656 2.765625 1.738281 2.765625 2 C 2.765625 2.382812 2.921875 2.691406 3.234375 2.921875 C 3.546875 3.148438 3.976562 3.265625 4.53125 3.265625 C 4.945312 3.265625 5.335938 3.191406 5.703125 3.046875 C 6.078125 2.898438 6.375 2.707031 6.59375 2.46875 C 6.8125 2.226562 6.921875 1.96875 6.921875 1.6875 C 6.921875 1.46875 6.835938 1.296875 6.671875 1.171875 C 6.515625 1.046875 6.210938 0.929688 5.765625 0.828125 C 5.316406 0.734375 4.617188 0.617188 3.671875 0.484375 Z M 3.671875 0.484375 "/></g></g></g></svg>