<svg xmlns="http://www.w3.org/2000/svg" xmlns:xlink="http://www.w3.org/1999/xlink" width="1080" zoomAndPan="magnify" viewBox="0 0 810 809.999993" height="1080" preserveAspectRatio="xMidYMid meet" version="1.0"><defs><clipPath id="2ac93dbc45"><path d="M 237.933594 175.988281 L 564.367188 175.988281 L 564.367188 502.425781 L 237.933594 502.425781 Z M 237.933594 175.988281 " clip-rule="nonzero"/></clipPath></defs><path fill="#000000" d="M 410.179688 275.761719 L 410.179688 311.953125 C 417.324219 312.597656 424.242188 313.980469 430.882812 316.0625 L 444.75 282.574219 C 433.679688 278.832031 422.082031 276.539062 410.179688 275.761719 " fill-opacity="1" fill-rule="nonzero"/><path fill="#000000" d="M 392.136719 275.761719 C 380.234375 276.523438 368.636719 278.832031 357.566406 282.574219 L 371.429688 316.0625 C 378.074219 313.980469 384.992188 312.597656 392.136719 311.953125 L 392.136719 275.761719 " fill-opacity="1" fill-rule="nonzero"/><path fill="#000000" d="M 464.308594 270.871094 L 464.308594 203.273438 L 338.007812 203.273438 L 338.007812 270.871094 C 357.605469 262.054688 379.023438 257.414062 401.152344 257.414062 C 423.292969 257.414062 444.710938 262.054688 464.308594 270.871094 " fill-opacity="1" fill-rule="nonzero"/><path fill="#000000" d="M 482.957031 439.054688 L 482.957031 411.390625 C 482.957031 366.292969 446.265625 329.585938 401.152344 329.585938 C 356.050781 329.585938 319.359375 366.292969 319.359375 411.390625 L 319.359375 439.054688 L 345.28125 439.054688 C 343.953125 434.128906 343.253906 429.011719 343.253906 423.859375 C 343.253906 411.75 346.957031 400.136719 353.96875 390.304688 L 357.210938 385.757812 L 368.925781 387.589844 C 370.679688 379.894531 374.316406 373.410156 379.800781 368.28125 C 392.964844 355.945312 411.945312 356.644531 412.75 356.671875 L 420.710938 357.027344 L 421.34375 364.988281 C 422.105469 374.726562 426.179688 382.105469 433.46875 386.890625 C 439.109375 390.609375 444.789062 391.542969 445.277344 391.609375 L 449.941406 392.125 L 452.0625 396.261719 C 456.636719 404.683594 459.0625 414.226562 459.0625 423.859375 C 459.0625 429.011719 458.363281 434.128906 457.019531 439.054688 L 482.957031 439.054688 " fill-opacity="1" fill-rule="nonzero"/><path fill="#000000" d="M 447.53125 322.996094 C 453.804688 326.292969 459.667969 330.230469 465.058594 334.726562 L 490.679688 309.105469 C 481.71875 301.238281 471.898438 294.660156 461.421875 289.480469 L 447.53125 322.996094 " fill-opacity="1" fill-rule="nonzero"/><path fill="#000000" d="M 404.800781 375.4375 C 400.78125 376.242188 395.828125 377.957031 392.058594 381.515625 C 387.984375 385.390625 385.929688 390.820312 385.769531 398.148438 L 385.558594 408.480469 L 365.84375 405.382812 C 362.863281 411.050781 361.308594 417.347656 361.308594 423.859375 C 361.308594 429.09375 362.324219 434.273438 364.300781 439.054688 L 438.015625 439.054688 C 439.992188 434.273438 441.019531 429.09375 441.019531 423.859375 C 441.019531 418.5625 439.953125 413.289062 437.921875 408.441406 C 434.378906 407.464844 429.433594 405.683594 424.347656 402.484375 C 417.058594 397.894531 408.359375 389.644531 404.800781 375.4375 " fill-opacity="1" fill-rule="nonzero"/><path fill="#000000" d="M 354.773438 322.996094 L 340.894531 289.480469 C 330.414062 294.660156 320.597656 301.238281 311.632812 309.105469 L 337.257812 334.726562 C 342.644531 330.230469 348.511719 326.292969 354.773438 322.996094 " fill-opacity="1" fill-rule="nonzero"/><g clip-path="url(#2ac93dbc45)"><path fill="#000000" d="M 555.128906 493.183594 L 247.1875 493.183594 L 247.1875 411.390625 C 247.1875 370.257812 263.199219 331.589844 292.273438 302.515625 C 300.75 294.039062 310.039062 286.6875 319.949219 280.503906 L 319.949219 185.230469 L 482.363281 185.230469 L 482.363281 280.503906 C 492.277344 286.6875 501.566406 294.039062 510.042969 302.515625 C 539.117188 331.589844 555.128906 370.257812 555.128906 411.390625 Z M 516.566406 295.976562 C 508.933594 288.332031 500.550781 281.453125 491.589844 275.46875 L 491.589844 185.230469 C 491.589844 180.128906 487.464844 175.988281 482.363281 175.988281 L 319.949219 175.988281 C 314.851562 175.988281 310.726562 180.128906 310.726562 185.230469 L 310.726562 275.46875 C 301.777344 281.441406 293.394531 288.320312 285.75 295.976562 C 254.921875 326.804688 237.933594 367.792969 237.933594 411.390625 L 237.933594 493.183594 C 237.933594 498.300781 242.074219 502.425781 247.1875 502.425781 L 555.128906 502.425781 C 560.230469 502.425781 564.367188 498.300781 564.367188 493.183594 L 564.367188 411.390625 C 564.367188 367.792969 547.394531 326.804688 516.566406 295.976562 " fill-opacity="1" fill-rule="nonzero"/></g><path fill="#000000" d="M 500.59375 402.363281 L 536.796875 402.363281 C 536.019531 390.476562 533.710938 378.878906 529.984375 367.792969 L 496.492188 381.671875 C 498.5625 388.300781 499.945312 395.234375 500.59375 402.363281 " fill-opacity="1" fill-rule="nonzero"/><path fill="#000000" d="M 477.816406 347.496094 C 482.3125 352.886719 486.253906 358.753906 489.546875 365.011719 L 523.078125 351.121094 C 517.882812 340.65625 511.308594 330.824219 503.4375 321.863281 L 477.816406 347.496094 " fill-opacity="1" fill-rule="nonzero"/><path fill="#000000" d="M 501 439.054688 L 537.085938 439.054688 L 537.085938 420.40625 L 501 420.40625 L 501 439.054688 " fill-opacity="1" fill-rule="nonzero"/><path fill="#000000" d="M 305.824219 381.671875 L 272.332031 367.792969 C 268.601562 378.878906 266.296875 390.476562 265.519531 402.363281 L 301.722656 402.363281 C 302.371094 395.234375 303.765625 388.300781 305.824219 381.671875 " fill-opacity="1" fill-rule="nonzero"/><path fill="#000000" d="M 324.496094 347.496094 L 298.875 321.863281 C 291.007812 330.824219 284.433594 340.65625 279.238281 351.121094 L 312.769531 365.011719 C 316.0625 358.753906 320.003906 352.886719 324.496094 347.496094 " fill-opacity="1" fill-rule="nonzero"/><path fill="#000000" d="M 265.230469 475.140625 L 537.085938 475.140625 L 537.085938 457.097656 L 265.230469 457.097656 L 265.230469 475.140625 " fill-opacity="1" fill-rule="nonzero"/><path fill="#000000" d="M 301.316406 420.40625 L 265.230469 420.40625 L 265.230469 439.054688 L 301.316406 439.054688 L 301.316406 420.40625 " fill-opacity="1" fill-rule="nonzero"/><path fill="#000000" d="M 226.234375 605.753906 L 193.917969 605.753906 L 193.917969 592.414062 L 221.070312 592.414062 C 223.386719 592.414062 224.019531 591.308594 224.019531 589.460938 L 224.019531 581.554688 C 224.019531 579.761719 223.386719 578.65625 221.070312 578.65625 L 193.917969 578.65625 L 193.917969 567.585938 L 224.496094 567.585938 C 226.816406 567.585938 227.449219 566.476562 227.449219 564.683594 L 227.449219 556.25 C 227.449219 554.457031 226.816406 553.351562 224.496094 553.351562 L 180.898438 553.351562 C 178.578125 553.351562 177.945312 554.457031 177.945312 556.25 L 177.945312 616.980469 C 177.945312 618.828125 178.578125 619.933594 180.898438 619.933594 L 226.234375 619.933594 C 228.554688 619.933594 229.1875 618.828125 229.1875 616.980469 L 229.1875 608.703125 C 229.1875 606.859375 228.554688 605.753906 226.234375 605.753906 Z M 226.234375 605.753906 " fill-opacity="1" fill-rule="nonzero"/><path fill="#000000" d="M 286.40625 605.753906 L 257.304688 605.753906 L 257.304688 556.25 C 257.304688 553.929688 256.144531 553.351562 254.351562 553.351562 L 244.335938 553.351562 C 242.488281 553.351562 241.382812 553.929688 241.382812 556.25 L 241.382812 616.980469 C 241.382812 618.828125 242.015625 619.933594 244.335938 619.933594 L 286.40625 619.933594 C 288.777344 619.933594 289.355469 618.828125 289.355469 616.980469 L 289.355469 608.703125 C 289.355469 606.859375 288.777344 605.753906 286.40625 605.753906 Z M 286.40625 605.753906 " fill-opacity="1" fill-rule="nonzero"/><path fill="#000000" d="M 379.089844 553.351562 L 369.074219 553.351562 C 367.28125 553.351562 366.175781 553.929688 366.175781 556.25 L 366.175781 579.128906 L 343.609375 579.128906 L 343.609375 556.25 C 343.609375 553.929688 342.554688 553.351562 340.660156 553.351562 L 330.640625 553.351562 C 328.796875 553.351562 327.691406 553.929688 327.691406 556.25 L 327.691406 616.980469 C 327.691406 619.300781 328.796875 619.933594 330.640625 619.933594 L 340.660156 619.933594 C 342.554688 619.933594 343.609375 619.300781 343.609375 616.980469 L 343.609375 594.101562 L 366.175781 594.101562 L 366.175781 616.980469 C 366.175781 619.300781 367.28125 619.933594 369.074219 619.933594 L 379.089844 619.933594 C 380.9375 619.933594 382.042969 619.300781 382.042969 616.980469 L 382.042969 556.25 C 382.042969 553.929688 380.9375 553.351562 379.089844 553.351562 Z M 379.089844 553.351562 " fill-opacity="1" fill-rule="nonzero"/><path fill="#000000" d="M 449.351562 598.582031 L 449.351562 574.703125 C 449.351562 558.675781 434.167969 551.820312 422.097656 551.820312 C 410.074219 551.820312 395.105469 558.675781 395.105469 574.703125 L 395.105469 598.582031 C 395.105469 614.558594 410.074219 621.464844 422.097656 621.464844 C 434.167969 621.464844 449.351562 614.558594 449.351562 598.582031 Z M 433.429688 576.125 L 433.429688 597.160156 C 433.429688 603.644531 428.792969 607.386719 422.097656 607.386719 C 415.507812 607.386719 410.867188 603.644531 410.867188 597.160156 L 410.867188 576.125 C 410.867188 569.640625 415.507812 565.898438 422.097656 565.898438 C 428.792969 565.898438 433.429688 569.640625 433.429688 576.125 Z M 433.429688 576.125 " fill-opacity="1" fill-rule="nonzero"/><path fill="#000000" d="M 516.824219 616.71875 L 502.539062 595.945312 C 508.8125 593.839844 516.613281 586.40625 516.613281 575.808594 C 516.613281 569.324219 514.503906 563.578125 510.761719 559.886719 C 506.492188 555.667969 501.640625 553.457031 490.625 553.457031 L 465.109375 553.457031 C 462.789062 553.457031 462.261719 554.5625 462.261719 556.355469 L 462.261719 616.980469 C 462.261719 619.300781 463.261719 619.933594 465.109375 619.933594 L 475.125 619.933594 C 476.917969 619.933594 478.078125 619.300781 478.078125 616.980469 L 478.078125 567.585938 L 491.519531 567.585938 C 496.792969 567.585938 500.851562 570.957031 500.851562 576.230469 C 500.851562 580.976562 496.160156 584.402344 491.203125 584.402344 L 489.199219 584.402344 C 486.882812 584.402344 486.25 585.507812 486.25 587.355469 L 486.25 595.417969 C 486.25 598.265625 486.460938 599.375 487.355469 600.585938 L 498.320312 616.875 C 499.691406 619.039062 500.957031 619.933594 503.382812 619.933594 L 515.296875 619.933594 C 517.246094 619.933594 517.722656 618.089844 516.824219 616.71875 Z M 516.824219 616.71875 " fill-opacity="1" fill-rule="nonzero"/><path fill="#000000" d="M 580.785156 553.351562 L 571.03125 553.351562 C 569.238281 553.351562 568.132812 553.929688 568.132812 556.25 L 568.132812 591.414062 L 546.675781 556.777344 C 545.355469 554.773438 544.621094 553.351562 542.089844 553.351562 L 532.597656 553.351562 C 530.28125 553.351562 529.648438 554.457031 529.648438 556.25 L 529.648438 616.980469 C 529.648438 619.300781 530.753906 619.933594 532.597656 619.933594 L 542.617188 619.933594 C 544.410156 619.933594 545.566406 619.300781 545.566406 616.980469 L 545.566406 581.765625 L 567.023438 616.507812 C 568.34375 618.511719 569.027344 619.933594 571.558594 619.933594 L 580.785156 619.933594 C 583.105469 619.933594 583.683594 618.828125 583.683594 616.980469 L 583.683594 556.25 C 583.683594 553.929688 582.578125 553.351562 580.785156 553.351562 Z M 580.785156 553.351562 " fill-opacity="1" fill-rule="nonzero"/><path fill="#000000" d="M 651.003906 598.582031 L 651.003906 574.703125 C 651.003906 558.675781 635.820312 551.820312 623.75 551.820312 C 611.730469 551.820312 596.757812 558.675781 596.757812 574.703125 L 596.757812 598.582031 C 596.757812 614.558594 611.730469 621.464844 623.75 621.464844 C 635.820312 621.464844 651.003906 614.558594 651.003906 598.582031 Z M 635.085938 576.125 L 635.085938 597.160156 C 635.085938 603.644531 630.445312 607.386719 623.75 607.386719 C 617.160156 607.386719 612.519531 603.644531 612.519531 597.160156 L 612.519531 576.125 C 612.519531 569.640625 617.160156 565.898438 623.75 565.898438 C 630.445312 565.898438 635.085938 569.640625 635.085938 576.125 Z M 635.085938 576.125 " fill-opacity="1" fill-rule="nonzero"/><path fill="#000000" d="M 308.570312 699.832031 C 306.738281 694.390625 304.367188 687.535156 301.453125 679.273438 L 301.1875 679.273438 C 301.1875 679.589844 301.003906 681.855469 300.664062 686.074219 C 300.199219 692.164062 299.976562 695.351562 299.976562 695.667969 C 299.976562 696.511719 300.398438 696.933594 301.242188 696.933594 L 302.824219 696.933594 L 302.929688 697.089844 L 302.507812 699.253906 L 301.453125 699.199219 C 299.515625 699.121094 298.449219 699.09375 298.238281 699.09375 C 297.605469 699.09375 296.878906 699.121094 296.074219 699.199219 C 295.257812 699.304688 294.730469 699.371094 294.492188 699.410156 L 294.757812 697.195312 C 295.5625 697.132812 296.140625 696.878906 296.496094 696.457031 C 296.878906 696.011719 297.128906 695.234375 297.234375 694.140625 C 297.511719 691.820312 297.867188 688.550781 298.289062 684.332031 C 298.738281 680.089844 298.976562 677.71875 298.976562 677.214844 C 298.976562 676.519531 298.726562 676.003906 298.238281 675.6875 C 297.734375 675.371094 296.878906 675.1875 295.652344 675.109375 L 295.496094 674.84375 L 295.863281 673 C 297.867188 673.144531 299.421875 673.210938 300.558594 673.210938 C 300.726562 673.210938 301.585938 673.183594 303.140625 673.105469 L 304.035156 673.050781 C 305.511719 678.007812 307.359375 683.742188 309.570312 690.238281 L 310.097656 691.714844 L 310.308594 691.714844 C 310.652344 690.765625 310.914062 690.027344 311.101562 689.5 C 313.128906 683.675781 314.976562 678.21875 316.636719 673.15625 C 316.953125 673.15625 317.230469 673.15625 317.480469 673.15625 C 318.707031 673.238281 319.640625 673.25 320.273438 673.210938 C 320.867188 673.210938 321.671875 673.183594 322.699219 673.105469 C 323.753906 673.039062 324.359375 673 324.542969 673 L 324.648438 673.15625 L 324.4375 675.054688 C 323.277344 675.199219 322.460938 675.425781 322.011719 675.742188 C 321.550781 676.058594 321.328125 676.558594 321.328125 677.214844 C 321.328125 677.953125 321.433594 680.15625 321.644531 683.804688 C 321.882812 687.429688 322.132812 690.554688 322.382812 693.191406 C 322.488281 694.246094 322.59375 695.035156 322.699219 695.5625 C 322.832031 696.089844 323.027344 696.457031 323.277344 696.667969 C 323.515625 696.855469 323.859375 696.933594 324.28125 696.933594 C 324.515625 696.933594 324.769531 696.933594 325.019531 696.933594 C 325.253906 696.90625 325.402344 696.878906 325.441406 696.878906 L 325.546875 697.089844 L 325.175781 699.199219 C 325.03125 699.199219 324.503906 699.175781 323.59375 699.148438 C 322.710938 699.109375 321.933594 699.09375 321.273438 699.09375 C 320.285156 699.09375 319.230469 699.148438 318.113281 699.253906 C 316.980469 699.359375 316.386719 699.410156 316.320312 699.410156 L 316.582031 697.195312 C 317.386719 697.089844 317.96875 696.878906 318.324219 696.5625 C 318.707031 696.25 318.902344 695.800781 318.902344 695.195312 C 318.902344 694.851562 318.8125 693.546875 318.640625 691.292969 C 318.453125 689.011719 318.324219 687.167969 318.21875 685.757812 C 317.902344 681.644531 317.742188 679.484375 317.742188 679.273438 L 317.480469 679.273438 C 314.488281 687.535156 312.101562 694.285156 310.308594 699.515625 Z M 308.570312 699.832031 " fill-opacity="1" fill-rule="nonzero"/><path fill="#000000" d="M 350.523438 699.570312 C 348.164062 699.570312 346.886719 698.515625 346.675781 696.40625 L 346.464844 696.300781 C 345.515625 697.25 344.632812 698.015625 343.828125 698.566406 C 343.050781 699.121094 342.429688 699.410156 341.984375 699.410156 C 340.425781 699.410156 339.148438 698.910156 338.132812 697.882812 C 337.144531 696.867188 336.65625 695.589844 336.65625 694.035156 C 336.65625 693.191406 336.84375 692.480469 337.238281 691.871094 C 337.660156 691.28125 338.199219 690.898438 338.871094 690.710938 L 346.621094 688.710938 L 346.675781 687.339844 C 346.675781 686.046875 346.359375 685.046875 345.726562 684.332031 C 345.09375 683.636719 344.222656 683.277344 343.140625 683.277344 C 342.40625 683.277344 341.613281 683.464844 340.769531 683.804688 C 339.925781 684.164062 339.097656 684.648438 338.292969 685.28125 L 338.082031 685.125 L 337.449219 683.121094 C 338.714844 682.355469 340.03125 681.671875 341.402344 681.066406 C 342.800781 680.472656 343.828125 680.167969 344.460938 680.167969 C 346.425781 680.167969 347.941406 680.644531 348.996094 681.59375 C 350.046875 682.542969 350.574219 683.847656 350.574219 685.492188 C 350.574219 685.808594 350.46875 687.023438 350.257812 689.132812 C 349.941406 691.976562 349.785156 693.71875 349.785156 694.351562 C 349.785156 694.917969 349.917969 695.351562 350.207031 695.667969 C 350.484375 695.984375 350.867188 696.144531 351.367188 696.144531 C 351.75 696.144531 352.15625 696.0625 352.578125 695.878906 C 353 695.667969 353.332031 695.457031 353.582031 695.246094 L 354.160156 696.039062 C 353.738281 696.773438 353.183594 697.5 352.527344 698.199219 C 351.855469 698.910156 351.183594 699.359375 350.523438 699.570312 Z M 343.039062 696.195312 C 343.484375 696.195312 344.039062 696.039062 344.671875 695.722656 C 345.304688 695.40625 345.859375 695.023438 346.359375 694.5625 L 346.515625 690.605469 L 341.613281 692.03125 C 340.875 692.28125 340.507812 692.796875 340.507812 693.558594 C 340.507812 694.296875 340.730469 694.929688 341.191406 695.457031 C 341.679688 695.957031 342.300781 696.195312 343.039062 696.195312 Z M 343.039062 696.195312 " fill-opacity="1" fill-rule="nonzero"/><path fill="#000000" d="M 364.632812 697.25 C 365.4375 697.183594 365.964844 696.933594 366.214844 696.511719 C 366.492188 696.089844 366.636719 695.300781 366.636719 694.140625 L 366.636719 685.652344 C 366.636719 684.742188 366.503906 684.109375 366.265625 683.753906 C 366.054688 683.371094 365.648438 683.175781 365.054688 683.175781 C 364.84375 683.175781 364.660156 683.199219 364.527344 683.226562 C 364.382812 683.265625 364.277344 683.277344 364.210938 683.277344 L 364 683.015625 L 364.15625 681.382812 C 365.421875 681.171875 366.703125 680.933594 368.007812 680.644531 C 369.296875 680.367188 370.128906 680.195312 370.484375 680.117188 L 370.800781 680.378906 C 370.761719 680.628906 370.695312 681.171875 370.589844 682.015625 C 370.484375 682.859375 370.445312 683.648438 370.484375 684.386719 L 370.640625 684.542969 C 371.445312 683.277344 372.382812 682.265625 373.4375 681.488281 C 374.492188 680.722656 375.453125 680.328125 376.335938 680.328125 C 376.679688 680.328125 376.980469 680.367188 377.230469 680.433594 C 377.46875 680.472656 377.613281 680.484375 377.652344 680.484375 L 377.8125 680.75 C 377.707031 681.171875 377.5625 682.066406 377.390625 683.4375 C 377.207031 684.78125 377.101562 686.046875 377.074219 687.234375 L 375.019531 687.339844 C 375.019531 686.152344 374.9375 685.375 374.808594 685.019531 C 374.664062 684.636719 374.386719 684.4375 373.964844 684.4375 C 373.398438 684.4375 372.816406 684.648438 372.222656 685.070312 C 371.65625 685.46875 371.128906 686.019531 370.640625 686.757812 C 370.601562 687.496094 370.535156 688.761719 370.429688 690.554688 C 370.324219 692.320312 370.273438 693.742188 370.273438 694.824219 C 370.273438 695.640625 370.390625 696.195312 370.640625 696.511719 C 370.878906 696.800781 371.355469 696.933594 372.066406 696.933594 C 372.449219 696.933594 372.816406 696.921875 373.171875 696.878906 C 373.554688 696.855469 373.820312 696.828125 373.964844 696.828125 L 374.015625 697.039062 L 373.59375 699.199219 C 373.277344 699.199219 372.671875 699.175781 371.800781 699.148438 C 370.917969 699.109375 369.984375 699.09375 369.007812 699.09375 C 367.980469 699.09375 367.019531 699.109375 366.109375 699.148438 C 365.1875 699.175781 364.605469 699.214844 364.367188 699.253906 Z M 364.632812 697.25 " fill-opacity="1" fill-rule="nonzero"/><path fill="#000000" d="M 387.867188 697.300781 C 388.527344 697.195312 389 697.027344 389.289062 696.773438 C 389.566406 696.539062 389.738281 696.195312 389.816406 695.773438 C 389.882812 695.324219 389.921875 694.601562 389.921875 693.613281 L 389.921875 674.265625 C 389.921875 672.867188 389.476562 672.140625 388.605469 672.101562 L 388.394531 672.101562 C 388.105469 672.101562 387.878906 672.128906 387.707031 672.15625 C 387.523438 672.15625 387.390625 672.15625 387.285156 672.15625 L 387.445312 670.257812 C 388.777344 670.125 390.160156 669.914062 391.609375 669.625 C 393.085938 669.308594 394.035156 669.125 394.457031 669.046875 L 394.71875 669.679688 C 394.402344 670.140625 394.113281 672.894531 393.875 677.953125 C 393.667969 683.015625 393.5625 688.695312 393.5625 694.984375 C 393.5625 695.761719 393.640625 696.300781 393.824219 696.617188 C 394.035156 696.933594 394.378906 697.089844 394.878906 697.089844 C 395.117188 697.089844 395.367188 697.078125 395.617188 697.039062 C 395.855469 697.011719 396.039062 696.984375 396.144531 696.984375 L 396.25 697.195312 L 395.828125 699.253906 C 395.578125 699.214844 395.0625 699.175781 394.296875 699.148438 C 393.519531 699.109375 392.691406 699.09375 391.820312 699.09375 C 391.082031 699.09375 390.253906 699.121094 389.34375 699.199219 C 388.460938 699.265625 387.878906 699.320312 387.601562 699.359375 Z M 394.457031 688.867188 L 398.886719 684.542969 C 399.226562 684.203125 399.464844 683.9375 399.570312 683.753906 C 399.703125 683.582031 399.78125 683.371094 399.78125 683.121094 C 399.78125 682.84375 399.597656 682.632812 399.253906 682.488281 C 398.9375 682.355469 398.382812 682.277344 397.621094 682.277344 L 397.515625 682.066406 L 397.882812 680.539062 C 398.160156 680.539062 398.726562 680.5625 399.570312 680.589844 C 400.441406 680.628906 401.335938 680.644531 402.257812 680.644531 C 402.957031 680.644531 403.75 680.617188 404.632812 680.539062 C 405.5 680.472656 406.082031 680.417969 406.371094 680.378906 L 406.476562 680.589844 L 406.109375 682.332031 C 405.078125 682.6875 404.050781 683.277344 402.996094 684.121094 C 401.941406 684.964844 400.703125 686.101562 399.308594 687.496094 C 398.53125 688.3125 398.148438 688.710938 398.148438 688.710938 L 402.046875 694.085938 C 402.851562 695.179688 403.605469 695.972656 404.316406 696.457031 C 405.054688 696.960938 405.816406 697.222656 406.636719 697.25 L 406.742188 697.511719 L 406.476562 699.042969 C 406.226562 699.109375 405.75 699.214844 405.054688 699.359375 C 404.339844 699.53125 403.8125 699.636719 403.472656 699.675781 C 402.972656 699.675781 402.46875 699.570312 401.941406 699.359375 C 401.414062 699.148438 400.914062 698.816406 400.464844 698.355469 C 400.003906 697.910156 399.464844 697.195312 398.832031 696.25 L 394.402344 689.605469 Z M 394.457031 688.867188 " fill-opacity="1" fill-rule="nonzero"/><path fill="#000000" d="M 425.308594 699.570312 C 422.59375 699.570312 420.457031 698.753906 418.875 697.089844 C 417.296875 695.445312 416.503906 693.230469 416.503906 690.449219 C 416.503906 688.589844 416.898438 686.890625 417.714844 685.335938 C 418.558594 683.753906 419.679688 682.515625 421.089844 681.59375 C 422.488281 680.644531 424.042969 680.167969 425.730469 680.167969 C 427.839844 680.167969 429.421875 680.695312 430.476562 681.75 C 431.554688 682.804688 432.109375 684.375 432.109375 686.441406 C 432.109375 687.285156 432.03125 688.011719 431.898438 688.605469 L 431.371094 689.078125 L 420.511719 689.078125 C 420.511719 691.398438 421 693.175781 421.988281 694.402344 C 422.960938 695.640625 424.359375 696.25 426.152344 696.25 C 427.652344 696.25 429.289062 695.851562 431.054688 695.035156 L 431.265625 695.195312 L 431.84375 696.722656 C 430.855469 697.433594 429.75 698.078125 428.523438 698.671875 C 427.285156 699.265625 426.21875 699.570312 425.308594 699.570312 Z M 427.101562 686.917969 C 427.441406 686.890625 427.679688 686.796875 427.785156 686.652344 C 427.917969 686.523438 427.996094 686.269531 427.996094 685.914062 C 427.996094 684.859375 427.734375 684.070312 427.207031 683.542969 C 426.707031 682.988281 425.96875 682.699219 424.992188 682.699219 C 423.832031 682.699219 422.84375 683.109375 422.039062 683.910156 C 421.261719 684.691406 420.773438 685.796875 420.5625 687.234375 Z M 427.101562 686.917969 " fill-opacity="1" fill-rule="nonzero"/><path fill="#000000" d="M 450.046875 699.570312 C 448.148438 699.570312 446.792969 699.175781 445.988281 698.410156 C 445.171875 697.644531 444.777344 696.394531 444.777344 694.667969 L 444.777344 685.070312 C 444.777344 684.308594 444.617188 683.78125 444.300781 683.488281 C 444.011719 683.214844 443.417969 683.054688 442.507812 683.015625 L 442.296875 682.753906 L 442.507812 681.222656 C 443.378906 680.773438 444.25 680.246094 445.09375 679.640625 C 445.960938 679.046875 446.6875 678.535156 447.253906 678.113281 C 447.808594 677.664062 448.164062 677.363281 448.308594 677.214844 L 449.308594 677.636719 C 449.269531 677.785156 449.203125 678.140625 449.097656 678.691406 C 449.019531 679.21875 448.953125 679.957031 448.886719 680.90625 L 454.316406 680.800781 L 454.476562 680.90625 L 454.054688 683.332031 L 448.730469 683.226562 C 448.519531 686.113281 448.414062 689.277344 448.414062 692.714844 C 448.414062 694.019531 448.636719 694.957031 449.097656 695.511719 C 449.546875 696.039062 450.3125 696.300781 451.367188 696.300781 C 451.746094 696.300781 452.117188 696.25 452.472656 696.144531 C 452.855469 696.039062 453.171875 695.933594 453.421875 695.828125 C 453.699219 695.722656 453.871094 695.65625 453.949219 695.617188 L 454.371094 696.773438 C 454.226562 696.921875 453.871094 697.222656 453.316406 697.671875 C 452.75 698.09375 452.128906 698.515625 451.472656 698.9375 C 450.839844 699.359375 450.363281 699.570312 450.046875 699.570312 Z M 450.046875 699.570312 " fill-opacity="1" fill-rule="nonzero"/><path fill="#000000" d="M 464.902344 697.511719 C 465.707031 697.300781 466.289062 697.011719 466.644531 696.617188 C 466.988281 696.234375 467.171875 695.667969 467.171875 694.929688 L 467.171875 685.335938 C 467.171875 684.570312 467.039062 684.003906 466.800781 683.648438 C 466.550781 683.304688 466.144531 683.121094 465.589844 683.121094 C 465.445312 683.121094 465.246094 683.148438 465.007812 683.175781 C 464.796875 683.214844 464.667969 683.253906 464.640625 683.277344 L 464.796875 681.382812 C 466.128906 681.210938 467.460938 680.984375 468.804688 680.695312 C 470.175781 680.417969 471.074219 680.246094 471.492188 680.167969 L 471.757812 680.695312 C 471.46875 681.261719 471.242188 682.949219 471.074219 685.757812 C 470.886719 688.539062 470.808594 691.609375 470.808594 694.984375 C 470.808594 695.722656 470.914062 696.25 471.125 696.5625 C 471.335938 696.878906 471.679688 697.039062 472.179688 697.039062 C 472.417969 697.039062 472.667969 697.027344 472.917969 696.984375 C 473.195312 696.960938 473.367188 696.933594 473.445312 696.933594 L 473.550781 697.144531 L 473.234375 699.199219 C 472.945312 699.199219 472.417969 699.175781 471.652344 699.148438 C 470.875 699.109375 470.070312 699.09375 469.226562 699.09375 C 468.449219 699.09375 467.566406 699.160156 466.589844 699.304688 C 465.601562 699.4375 464.96875 699.53125 464.695312 699.570312 Z M 468.699219 675.953125 C 467.960938 675.953125 467.382812 675.726562 466.960938 675.265625 C 466.566406 674.816406 466.378906 674.238281 466.378906 673.527344 C 466.378906 672.722656 466.617188 672.050781 467.117188 671.523438 C 467.644531 670.996094 468.304688 670.730469 469.121094 670.730469 C 469.859375 670.730469 470.441406 670.984375 470.863281 671.46875 C 471.285156 671.929688 471.492188 672.5 471.492188 673.15625 C 471.492188 674 471.230469 674.6875 470.703125 675.214844 C 470.175781 675.714844 469.503906 675.953125 468.699219 675.953125 Z M 468.699219 675.953125 " fill-opacity="1" fill-rule="nonzero"/><path fill="#000000" d="M 496.0625 697.460938 C 496.800781 697.25 497.328125 696.972656 497.644531 696.617188 C 497.960938 696.234375 498.117188 695.695312 498.117188 694.984375 L 498.277344 687.445312 C 498.277344 686.179688 498.011719 685.214844 497.484375 684.542969 C 496.984375 683.886719 496.234375 683.542969 495.21875 683.542969 C 493.980469 683.542969 492.542969 684.164062 490.894531 685.386719 C 490.816406 687.074219 490.761719 688.183594 490.738281 688.710938 C 490.59375 692.164062 490.527344 694.246094 490.527344 694.984375 C 490.527344 695.722656 490.605469 696.25 490.789062 696.5625 C 491 696.878906 491.371094 697.039062 491.898438 697.039062 C 492.132812 697.039062 492.386719 697.027344 492.636719 696.984375 C 492.871094 696.960938 493.058594 696.933594 493.164062 696.933594 L 493.214844 697.089844 L 492.847656 699.199219 C 492.554688 699.199219 492.027344 699.175781 491.265625 699.148438 C 490.527344 699.109375 489.734375 699.09375 488.890625 699.09375 C 488.113281 699.09375 487.257812 699.121094 486.308594 699.199219 C 485.386719 699.265625 484.792969 699.320312 484.515625 699.359375 L 484.78125 697.25 C 485.585938 697.144531 486.125 696.933594 486.414062 696.617188 C 486.730469 696.273438 486.890625 695.722656 486.890625 694.984375 L 486.890625 685.652344 C 486.890625 684.742188 486.742188 684.109375 486.46875 683.753906 C 486.175781 683.410156 485.675781 683.226562 484.9375 683.226562 L 484.464844 683.226562 L 484.304688 683.015625 L 484.464844 681.382812 C 485.796875 681.171875 487.113281 680.933594 488.417969 680.644531 C 489.710938 680.367188 490.554688 680.195312 490.949219 680.117188 L 491.210938 680.484375 C 491.171875 680.628906 491.105469 680.984375 491 681.539062 C 490.894531 682.066406 490.816406 682.621094 490.789062 683.175781 L 490.894531 683.332031 C 491.660156 682.738281 492.660156 682.066406 493.902344 681.328125 C 495.125 680.5625 496.007812 680.167969 496.535156 680.167969 C 498.355469 680.167969 499.777344 680.644531 500.804688 681.59375 C 501.820312 682.515625 502.335938 683.78125 502.335938 685.386719 C 502.335938 686.019531 502.230469 687.339844 502.019531 689.34375 C 501.808594 692.503906 501.703125 694.375 501.703125 694.929688 C 501.703125 695.667969 501.808594 696.222656 502.019531 696.5625 C 502.230469 696.921875 502.574219 697.089844 503.074219 697.089844 C 503.3125 697.089844 503.5625 697.078125 503.8125 697.039062 C 504.089844 697.011719 504.285156 696.984375 504.390625 696.984375 L 504.496094 697.144531 L 504.128906 699.199219 C 503.839844 699.199219 503.3125 699.175781 502.546875 699.148438 C 501.808594 699.109375 501.015625 699.09375 500.175781 699.09375 C 499.460938 699.09375 498.644531 699.148438 497.695312 699.253906 C 496.746094 699.359375 496.128906 699.4375 495.851562 699.515625 Z M 496.0625 697.460938 " fill-opacity="1" fill-rule="nonzero"/><path fill="#000000" d="M 529.757812 682.4375 L 529.597656 682.59375 C 530.652344 683.792969 531.179688 685.164062 531.179688 686.707031 C 531.179688 688.050781 530.8125 689.261719 530.074219 690.34375 C 529.359375 691.4375 528.386719 692.292969 527.121094 692.925781 C 525.855469 693.558594 524.445312 693.875 522.902344 693.875 C 522.058594 693.875 521.230469 693.769531 520.425781 693.558594 C 519.503906 694.164062 519.054688 694.707031 519.054688 695.195312 C 519.054688 695.761719 519.449219 696.167969 520.265625 696.40625 C 521.070312 696.617188 522.347656 696.828125 524.117188 697.039062 C 525.90625 697.25 527.34375 697.488281 528.4375 697.722656 C 529.558594 697.976562 530.519531 698.394531 531.339844 698.988281 C 532.140625 699.582031 532.550781 700.4375 532.550781 701.574219 C 532.550781 702.757812 532.050781 703.917969 531.074219 705.050781 C 530.085938 706.210938 528.808594 707.132812 527.226562 707.847656 C 525.644531 708.542969 523.984375 708.902344 522.269531 708.902344 C 520.226562 708.902344 518.605469 708.398438 517.421875 707.425781 C 516.222656 706.4375 515.628906 705.078125 515.628906 703.363281 C 515.96875 702.945312 516.523438 702.417969 517.261719 701.785156 C 518.027344 701.175781 518.84375 700.597656 519.6875 700.042969 L 519.6875 699.78125 C 518.316406 699.53125 517.261719 699.082031 516.523438 698.410156 C 515.8125 697.710938 515.429688 696.816406 515.363281 695.722656 C 516.378906 694.707031 517.5 693.824219 518.738281 693.085938 L 518.738281 692.875 C 517.75 692.320312 517 691.582031 516.472656 690.660156 C 515.945312 689.75 515.679688 688.710938 515.679688 687.550781 C 515.679688 686.179688 516.023438 684.941406 516.734375 683.804688 C 517.433594 682.648438 518.382812 681.75 519.582031 681.117188 C 520.808594 680.457031 522.164062 680.117188 523.640625 680.117188 C 524.234375 680.117188 525.011719 680.195312 525.960938 680.328125 C 526.660156 680.472656 527.238281 680.539062 527.699219 680.539062 C 528.859375 680.40625 530.71875 679.984375 533.289062 679.273438 L 533.445312 679.484375 L 532.972656 682.066406 Z M 523.695312 691.660156 C 524.855469 691.660156 525.722656 691.320312 526.328125 690.605469 C 526.960938 689.867188 527.277344 688.839844 527.277344 687.496094 C 527.277344 686.058594 526.910156 684.886719 526.171875 683.964844 C 525.433594 683.054688 524.433594 682.59375 523.167969 682.59375 C 522.074219 682.59375 521.214844 682.988281 520.582031 683.753906 C 519.949219 684.492188 519.632812 685.53125 519.632812 686.863281 C 519.632812 688.339844 520.003906 689.527344 520.742188 690.394531 C 521.480469 691.238281 522.453125 691.660156 523.695312 691.660156 Z M 521.742188 700.203125 C 521.109375 700.691406 520.597656 701.230469 520.214844 701.835938 C 519.859375 702.429688 519.6875 703.023438 519.6875 703.628906 C 519.6875 704.5 520.03125 705.183594 520.742188 705.683594 C 521.480469 706.210938 522.453125 706.476562 523.695312 706.476562 C 524.644531 706.476562 525.539062 706.289062 526.382812 705.949219 C 527.226562 705.632812 527.871094 705.210938 528.332031 704.683594 C 528.820312 704.15625 529.070312 703.550781 529.070312 702.890625 C 529.070312 702.390625 528.886719 702.007812 528.542969 701.730469 C 528.1875 701.441406 527.503906 701.175781 526.488281 700.941406 C 525.460938 700.730469 523.878906 700.480469 521.742188 700.203125 Z M 521.742188 700.203125 " fill-opacity="1" fill-rule="nonzero"/></svg>