<svg xmlns="http://www.w3.org/2000/svg" xmlns:xlink="http://www.w3.org/1999/xlink" width="500" zoomAndPan="magnify" viewBox="0 0 375 374.999991" height="500" preserveAspectRatio="xMidYMid meet" version="1.0"><defs><g/><clipPath id="e8efb8573d"><path d="M 135.476562 109.25 L 232.226562 109.25 L 232.226562 206 L 135.476562 206 Z M 135.476562 109.25 " clip-rule="nonzero"/></clipPath></defs><path fill="#000000" d="M 186.527344 138.820312 L 186.527344 149.546875 C 188.644531 149.738281 190.695312 150.148438 192.664062 150.765625 L 196.773438 140.839844 C 193.492188 139.730469 190.054688 139.050781 186.527344 138.820312 " fill-opacity="1" fill-rule="nonzero"/><path fill="#000000" d="M 181.179688 138.820312 C 177.652344 139.046875 174.214844 139.730469 170.933594 140.839844 L 175.042969 150.765625 C 177.011719 150.148438 179.0625 149.738281 181.179688 149.546875 L 181.179688 138.820312 " fill-opacity="1" fill-rule="nonzero"/><path fill="#000000" d="M 202.570312 137.371094 L 202.570312 117.335938 L 165.136719 117.335938 L 165.136719 137.371094 C 170.945312 134.757812 177.292969 133.382812 183.851562 133.382812 C 190.414062 133.382812 196.761719 134.757812 202.570312 137.371094 " fill-opacity="1" fill-rule="nonzero"/><path fill="#000000" d="M 208.097656 187.21875 L 208.097656 179.019531 C 208.097656 165.652344 197.222656 154.773438 183.851562 154.773438 C 170.484375 154.773438 159.609375 165.652344 159.609375 179.019531 L 159.609375 187.21875 L 167.292969 187.21875 C 166.898438 185.757812 166.691406 184.242188 166.691406 182.714844 C 166.691406 179.125 167.789062 175.683594 169.867188 172.769531 L 170.828125 171.421875 L 174.300781 171.964844 C 174.820312 169.683594 175.898438 167.761719 177.523438 166.242188 C 181.425781 162.585938 187.050781 162.792969 187.289062 162.800781 L 189.648438 162.90625 L 189.835938 165.265625 C 190.0625 168.152344 191.269531 170.339844 193.429688 171.757812 C 195.101562 172.859375 196.785156 173.136719 196.929688 173.15625 L 198.3125 173.308594 L 198.941406 174.535156 C 200.296875 177.03125 201.015625 179.859375 201.015625 182.714844 C 201.015625 184.242188 200.808594 185.757812 200.410156 187.21875 L 208.097656 187.21875 " fill-opacity="1" fill-rule="nonzero"/><path fill="#000000" d="M 197.597656 152.820312 C 199.457031 153.796875 201.195312 154.964844 202.792969 156.296875 L 210.386719 148.703125 C 207.730469 146.371094 204.820312 144.421875 201.714844 142.886719 L 197.597656 152.820312 " fill-opacity="1" fill-rule="nonzero"/><path fill="#000000" d="M 184.933594 168.363281 C 183.742188 168.601562 182.273438 169.109375 181.15625 170.164062 C 179.949219 171.3125 179.339844 172.921875 179.292969 175.09375 L 179.230469 178.15625 L 173.386719 177.238281 C 172.503906 178.917969 172.042969 180.785156 172.042969 182.714844 C 172.042969 184.265625 172.34375 185.800781 172.929688 187.21875 L 194.777344 187.21875 C 195.363281 185.800781 195.667969 184.265625 195.667969 182.714844 C 195.667969 181.144531 195.351562 179.582031 194.75 178.144531 C 193.699219 177.855469 192.234375 177.328125 190.726562 176.378906 C 188.566406 175.019531 185.988281 172.574219 184.933594 168.363281 " fill-opacity="1" fill-rule="nonzero"/><path fill="#000000" d="M 170.105469 152.820312 L 165.992188 142.886719 C 162.886719 144.421875 159.976562 146.371094 157.320312 148.703125 L 164.914062 156.296875 C 166.511719 154.964844 168.25 153.796875 170.105469 152.820312 " fill-opacity="1" fill-rule="nonzero"/><g clip-path="url(#e8efb8573d)"><path fill="#000000" d="M 229.488281 203.261719 L 138.21875 203.261719 L 138.21875 179.019531 C 138.21875 166.828125 142.964844 155.367188 151.582031 146.75 C 154.09375 144.238281 156.847656 142.058594 159.785156 140.226562 L 159.785156 111.988281 L 207.921875 111.988281 L 207.921875 140.226562 C 210.859375 142.058594 213.613281 144.238281 216.125 146.75 C 224.742188 155.367188 229.488281 166.828125 229.488281 179.019531 Z M 218.058594 144.8125 C 215.796875 142.546875 213.3125 140.507812 210.65625 138.734375 L 210.65625 111.988281 C 210.65625 110.476562 209.433594 109.25 207.921875 109.25 L 159.785156 109.25 C 158.273438 109.25 157.050781 110.476562 157.050781 111.988281 L 157.050781 138.734375 C 154.398438 140.503906 151.914062 142.542969 149.648438 144.8125 C 140.511719 153.949219 135.476562 166.097656 135.476562 179.019531 L 135.476562 203.261719 C 135.476562 204.777344 136.703125 206 138.21875 206 L 229.488281 206 C 231 206 232.226562 204.777344 232.226562 203.261719 L 232.226562 179.019531 C 232.226562 166.097656 227.195312 153.949219 218.058594 144.8125 " fill-opacity="1" fill-rule="nonzero"/></g><path fill="#000000" d="M 213.324219 176.34375 L 224.054688 176.34375 C 223.824219 172.820312 223.140625 169.382812 222.035156 166.097656 L 212.109375 170.210938 C 212.722656 172.175781 213.132812 174.230469 213.324219 176.34375 " fill-opacity="1" fill-rule="nonzero"/><path fill="#000000" d="M 206.574219 160.082031 C 207.90625 161.679688 209.074219 163.417969 210.050781 165.273438 L 219.988281 161.15625 C 218.449219 158.054688 216.5 155.140625 214.167969 152.484375 L 206.574219 160.082031 " fill-opacity="1" fill-rule="nonzero"/><path fill="#000000" d="M 213.445312 187.21875 L 224.140625 187.21875 L 224.140625 181.691406 L 213.445312 181.691406 L 213.445312 187.21875 " fill-opacity="1" fill-rule="nonzero"/><path fill="#000000" d="M 155.597656 170.210938 L 145.671875 166.097656 C 144.566406 169.382812 143.882812 172.820312 143.652344 176.34375 L 154.382812 176.34375 C 154.574219 174.230469 154.988281 172.175781 155.597656 170.210938 " fill-opacity="1" fill-rule="nonzero"/><path fill="#000000" d="M 161.132812 160.082031 L 153.539062 152.484375 C 151.207031 155.140625 149.257812 158.054688 147.71875 161.15625 L 157.65625 165.273438 C 158.632812 163.417969 159.800781 161.679688 161.132812 160.082031 " fill-opacity="1" fill-rule="nonzero"/><path fill="#000000" d="M 143.566406 197.914062 L 224.140625 197.914062 L 224.140625 192.566406 L 143.566406 192.566406 L 143.566406 197.914062 " fill-opacity="1" fill-rule="nonzero"/><path fill="#000000" d="M 154.261719 181.691406 L 143.566406 181.691406 L 143.566406 187.21875 L 154.261719 187.21875 L 154.261719 181.691406 " fill-opacity="1" fill-rule="nonzero"/><g fill="#000000" fill-opacity="1"><g transform="translate(70.007812, 222.198473)"><g><path d="M 5.984375 -12 L 1.875 -12 C 1.453125 -12 1.34375 -11.796875 1.34375 -11.46875 L 1.34375 -0.53125 C 1.34375 -0.109375 1.546875 0 1.875 0 L 3.6875 0 C 4.015625 0 4.21875 -0.109375 4.21875 -0.53125 L 4.21875 -3.5625 L 5.96875 -3.5625 C 9.078125 -3.5625 10.765625 -5.234375 10.765625 -7.765625 C 10.765625 -10.28125 9.125 -12 5.984375 -12 Z M 5.96875 -6.015625 L 4.21875 -6.015625 L 4.21875 -9.421875 L 5.96875 -9.421875 C 7.390625 -9.421875 8 -8.65625 8 -7.71875 C 8 -6.796875 7.390625 -6.015625 5.96875 -6.015625 Z M 5.96875 -6.015625 "/></g></g></g><g fill="#000000" fill-opacity="1"><g transform="translate(81.451583, 222.198473)"><g><path d="M 11.171875 -0.578125 L 8.609375 -4.328125 C 9.734375 -4.703125 11.140625 -6.03125 11.140625 -7.953125 C 11.140625 -9.125 10.765625 -10.15625 10.078125 -10.8125 C 9.3125 -11.578125 8.4375 -11.984375 6.453125 -11.984375 L 1.859375 -11.984375 C 1.4375 -11.984375 1.34375 -11.78125 1.34375 -11.453125 L 1.34375 -0.53125 C 1.34375 -0.109375 1.53125 0 1.859375 0 L 3.671875 0 C 4 0 4.1875 -0.109375 4.1875 -0.53125 L 4.1875 -9.421875 L 6.625 -9.421875 C 7.5625 -9.421875 8.296875 -8.828125 8.296875 -7.875 C 8.296875 -7.015625 7.453125 -6.40625 6.5625 -6.40625 L 6.203125 -6.40625 C 5.78125 -6.40625 5.671875 -6.203125 5.671875 -5.875 L 5.671875 -4.40625 C 5.671875 -3.90625 5.703125 -3.703125 5.875 -3.484375 L 7.84375 -0.546875 C 8.09375 -0.171875 8.3125 0 8.75 0 L 10.90625 0 C 11.25 0 11.34375 -0.328125 11.171875 -0.578125 Z M 11.171875 -0.578125 "/></g></g></g><g fill="#000000" fill-opacity="1"><g transform="translate(93.587813, 222.198473)"><g><path d="M 10.78125 -3.84375 L 10.78125 -8.15625 C 10.78125 -11.03125 8.046875 -12.265625 5.875 -12.265625 C 3.703125 -12.265625 1 -11.03125 1 -8.15625 L 1 -3.84375 C 1 -0.96875 3.703125 0.28125 5.875 0.28125 C 8.046875 0.28125 10.78125 -0.96875 10.78125 -3.84375 Z M 7.90625 -7.890625 L 7.90625 -4.109375 C 7.90625 -2.9375 7.078125 -2.265625 5.875 -2.265625 C 4.6875 -2.265625 3.84375 -2.9375 3.84375 -4.109375 L 3.84375 -7.890625 C 3.84375 -9.0625 4.6875 -9.734375 5.875 -9.734375 C 7.078125 -9.734375 7.90625 -9.0625 7.90625 -7.890625 Z M 7.90625 -7.890625 "/></g></g></g><g fill="#000000" fill-opacity="1"><g transform="translate(105.341375, 222.198473)"><g><path d="M 9.71875 -12 L 1.875 -12 C 1.453125 -12 1.34375 -11.796875 1.34375 -11.46875 L 1.34375 -0.53125 C 1.34375 -0.203125 1.453125 0 1.875 0 L 3.6875 0 C 4.109375 0 4.21875 -0.078125 4.21875 -0.546875 L 4.21875 -4.8125 L 8.953125 -4.8125 C 9.375 -4.8125 9.484375 -5.015625 9.484375 -5.34375 L 9.484375 -6.78125 C 9.484375 -7.109375 9.375 -7.3125 8.953125 -7.3125 L 4.21875 -7.3125 L 4.21875 -9.453125 L 9.71875 -9.453125 C 10.140625 -9.453125 10.25 -9.640625 10.25 -9.96875 L 10.25 -11.46875 C 10.25 -11.796875 10.140625 -12 9.71875 -12 Z M 9.71875 -12 "/></g></g></g><g fill="#000000" fill-opacity="1"><g transform="translate(116.31136, 222.198473)"><g><path d="M 10.046875 -2.546875 L 4.234375 -2.546875 L 4.234375 -4.953125 L 9.125 -4.953125 C 9.53125 -4.953125 9.640625 -5.15625 9.640625 -5.484375 L 9.640625 -6.90625 C 9.640625 -7.234375 9.53125 -7.4375 9.125 -7.4375 L 4.234375 -7.4375 L 4.234375 -9.421875 L 9.734375 -9.421875 C 10.15625 -9.421875 10.265625 -9.625 10.265625 -9.953125 L 10.265625 -11.46875 C 10.265625 -11.796875 10.15625 -12 9.734375 -12 L 1.875 -12 C 1.453125 -12 1.34375 -11.796875 1.34375 -11.46875 L 1.34375 -0.53125 C 1.34375 -0.203125 1.453125 0 1.875 0 L 10.046875 0 C 10.46875 0 10.578125 -0.203125 10.578125 -0.53125 L 10.578125 -2.03125 C 10.578125 -2.359375 10.46875 -2.546875 10.046875 -2.546875 Z M 10.046875 -2.546875 "/></g></g></g><g fill="#000000" fill-opacity="1"><g transform="translate(127.736912, 222.198473)"><g><path d="M 7 -6.96875 C 6.265625 -7.25 3.59375 -7.65625 3.59375 -8.765625 C 3.59375 -9.59375 4.59375 -9.828125 5.203125 -9.828125 C 5.75 -9.828125 6.40625 -9.671875 6.75 -9.34375 C 6.96875 -9.125 7.0625 -8.96875 7.125 -8.78125 C 7.21875 -8.546875 7.28125 -8.296875 7.625 -8.296875 L 9.40625 -8.296875 C 9.828125 -8.296875 9.9375 -8.375 9.9375 -8.8125 C 9.9375 -11.21875 7.40625 -12.265625 5.09375 -12.265625 C 2.8125 -12.1875 0.65625 -11.015625 0.65625 -8.640625 C 0.65625 -6.328125 2.359375 -5.59375 4.1875 -5.015625 C 5.75 -4.515625 7.359375 -4.5 7.359375 -3.484375 C 7.359375 -2.46875 6.5625 -2.25 5.578125 -2.25 C 4.90625 -2.25 4.15625 -2.40625 3.796875 -2.84375 C 3.5625 -3.125 3.46875 -3.359375 3.453125 -3.59375 C 3.40625 -4.046875 3.203125 -4.109375 2.796875 -4.109375 L 1.015625 -4.109375 C 0.609375 -4.109375 0.5 -4.015625 0.5 -3.59375 C 0.5 -1.046875 3.125 0.28125 5.390625 0.28125 C 8.203125 0.28125 10.25 -0.96875 10.25 -3.5625 C 10.25 -6.03125 8.3125 -6.5625 7 -6.96875 Z M 7 -6.96875 "/></g></g></g><g fill="#000000" fill-opacity="1"><g transform="translate(138.761565, 222.198473)"><g><path d="M 7 -6.96875 C 6.265625 -7.25 3.59375 -7.65625 3.59375 -8.765625 C 3.59375 -9.59375 4.59375 -9.828125 5.203125 -9.828125 C 5.75 -9.828125 6.40625 -9.671875 6.75 -9.34375 C 6.96875 -9.125 7.0625 -8.96875 7.125 -8.78125 C 7.21875 -8.546875 7.28125 -8.296875 7.625 -8.296875 L 9.40625 -8.296875 C 9.828125 -8.296875 9.9375 -8.375 9.9375 -8.8125 C 9.9375 -11.21875 7.40625 -12.265625 5.09375 -12.265625 C 2.8125 -12.1875 0.65625 -11.015625 0.65625 -8.640625 C 0.65625 -6.328125 2.359375 -5.59375 4.1875 -5.015625 C 5.75 -4.515625 7.359375 -4.5 7.359375 -3.484375 C 7.359375 -2.46875 6.5625 -2.25 5.578125 -2.25 C 4.90625 -2.25 4.15625 -2.40625 3.796875 -2.84375 C 3.5625 -3.125 3.46875 -3.359375 3.453125 -3.59375 C 3.40625 -4.046875 3.203125 -4.109375 2.796875 -4.109375 L 1.015625 -4.109375 C 0.609375 -4.109375 0.5 -4.015625 0.5 -3.59375 C 0.5 -1.046875 3.125 0.28125 5.390625 0.28125 C 8.203125 0.28125 10.25 -0.96875 10.25 -3.5625 C 10.25 -6.03125 8.3125 -6.5625 7 -6.96875 Z M 7 -6.96875 "/></g></g></g><g fill="#000000" fill-opacity="1"><g transform="translate(149.786219, 222.198473)"><g><path d="M 6.5625 -2.5 L 5.421875 -2.5 L 5.421875 -9.46875 L 6.515625 -9.46875 C 6.921875 -9.46875 7.03125 -9.671875 7.03125 -10 L 7.03125 -11.46875 C 7.03125 -11.796875 6.921875 -12 6.515625 -12 L 1.4375 -12 C 1.015625 -12 0.90625 -11.796875 0.90625 -11.46875 L 0.90625 -10 C 0.90625 -9.671875 1.015625 -9.46875 1.4375 -9.46875 L 2.546875 -9.46875 L 2.546875 -2.5 L 1.40625 -2.5 C 0.984375 -2.5 0.875 -2.296875 0.875 -1.96875 L 0.875 -0.53125 C 0.875 -0.203125 0.984375 0 1.40625 0 L 6.5625 0 C 6.984375 0 7.09375 -0.203125 7.09375 -0.53125 L 7.09375 -1.96875 C 7.09375 -2.296875 6.984375 -2.5 6.5625 -2.5 Z M 6.5625 -2.5 "/></g></g></g><g fill="#000000" fill-opacity="1"><g transform="translate(157.877043, 222.198473)"><g><path d="M 10.78125 -3.84375 L 10.78125 -8.15625 C 10.78125 -11.03125 8.046875 -12.265625 5.875 -12.265625 C 3.703125 -12.265625 1 -11.03125 1 -8.15625 L 1 -3.84375 C 1 -0.96875 3.703125 0.28125 5.875 0.28125 C 8.046875 0.28125 10.78125 -0.96875 10.78125 -3.84375 Z M 7.90625 -7.890625 L 7.90625 -4.109375 C 7.90625 -2.9375 7.078125 -2.265625 5.875 -2.265625 C 4.6875 -2.265625 3.84375 -2.9375 3.84375 -4.109375 L 3.84375 -7.890625 C 3.84375 -9.0625 4.6875 -9.734375 5.875 -9.734375 C 7.078125 -9.734375 7.90625 -9.0625 7.90625 -7.890625 Z M 7.90625 -7.890625 "/></g></g></g><g fill="#000000" fill-opacity="1"><g transform="translate(169.630605, 222.198473)"><g><path d="M 10.5625 -12 L 8.8125 -12 C 8.484375 -12 8.28125 -11.890625 8.28125 -11.46875 L 8.28125 -5.140625 L 4.40625 -11.375 C 4.171875 -11.75 4.046875 -12 3.59375 -12 L 1.875 -12 C 1.453125 -12 1.34375 -11.796875 1.34375 -11.46875 L 1.34375 -0.53125 C 1.34375 -0.109375 1.546875 0 1.875 0 L 3.6875 0 C 4.015625 0 4.21875 -0.109375 4.21875 -0.53125 L 4.21875 -6.875 L 8.078125 -0.625 C 8.3125 -0.25 8.4375 0 8.890625 0 L 10.5625 0 C 10.984375 0 11.09375 -0.203125 11.09375 -0.53125 L 11.09375 -11.46875 C 11.09375 -11.890625 10.890625 -12 10.5625 -12 Z M 10.5625 -12 "/></g></g></g><g fill="#000000" fill-opacity="1"><g transform="translate(182.058395, 222.198473)"><g><path d="M 11.671875 -0.515625 L 7.640625 -11.4375 C 7.46875 -11.8125 7.296875 -12 6.890625 -12 L 5.140625 -12 C 4.734375 -12 4.546875 -11.8125 4.390625 -11.4375 L 0.34375 -0.515625 C 0.25 -0.296875 0.25 0 0.65625 0 L 2.578125 0 C 2.96875 0 3.125 -0.109375 3.265625 -0.546875 L 3.78125 -1.984375 L 8.234375 -1.984375 L 8.75 -0.546875 C 8.890625 -0.109375 9.046875 0 9.453125 0 L 11.359375 0 C 11.765625 0 11.765625 -0.296875 11.671875 -0.515625 Z M 6.015625 -8.5625 L 7.390625 -4.546875 L 4.65625 -4.546875 Z M 6.015625 -8.5625 "/></g></g></g><g fill="#000000" fill-opacity="1"><g transform="translate(193.994182, 222.198473)"><g><path d="M 9.46875 -2.546875 L 4.21875 -2.546875 L 4.21875 -11.46875 C 4.21875 -11.890625 4.015625 -12 3.6875 -12 L 1.875 -12 C 1.546875 -12 1.34375 -11.890625 1.34375 -11.46875 L 1.34375 -0.53125 C 1.34375 -0.203125 1.453125 0 1.875 0 L 9.46875 0 C 9.890625 0 10 -0.203125 10 -0.53125 L 10 -2.03125 C 10 -2.359375 9.890625 -2.546875 9.46875 -2.546875 Z M 9.46875 -2.546875 "/></g></g></g><g fill="#000000" fill-opacity="1"><g transform="translate(204.599719, 222.198473)"><g/></g></g><g fill="#000000" fill-opacity="1"><g transform="translate(209.538038, 222.198473)"><g><path d="M 15.65625 -12 L 13.734375 -12 C 13.1875 -12 13.0625 -11.640625 13 -11.421875 L 11.203125 -5.21875 L 9.421875 -11.421875 C 9.359375 -11.671875 9.234375 -12 8.828125 -12 L 7.546875 -12 C 7.125 -12 7 -11.671875 6.921875 -11.421875 L 5.171875 -5.21875 L 3.375 -11.421875 C 3.296875 -11.640625 3.1875 -12 2.640625 -12 L 0.640625 -12 C 0.3125 -12 0.25 -11.6875 0.3125 -11.46875 L 3.6875 -0.390625 C 3.6875 -0.390625 3.78125 0 4.171875 0 L 5.78125 0 C 6.25 0 6.359375 -0.421875 6.359375 -0.421875 L 8.1875 -6.234375 L 10.015625 -0.421875 C 10.015625 -0.421875 10.125 0 10.59375 0 L 12.125 0 C 12.53125 0 12.625 -0.390625 12.625 -0.390625 L 15.96875 -11.46875 C 16.046875 -11.6875 15.984375 -12 15.65625 -12 Z M 15.65625 -12 "/></g></g></g><g fill="#000000" fill-opacity="1"><g transform="translate(225.90191, 222.198473)"><g><path d="M 10.046875 -2.546875 L 4.234375 -2.546875 L 4.234375 -4.953125 L 9.125 -4.953125 C 9.53125 -4.953125 9.640625 -5.15625 9.640625 -5.484375 L 9.640625 -6.90625 C 9.640625 -7.234375 9.53125 -7.4375 9.125 -7.4375 L 4.234375 -7.4375 L 4.234375 -9.421875 L 9.734375 -9.421875 C 10.15625 -9.421875 10.265625 -9.625 10.265625 -9.953125 L 10.265625 -11.46875 C 10.265625 -11.796875 10.15625 -12 9.734375 -12 L 1.875 -12 C 1.453125 -12 1.34375 -11.796875 1.34375 -11.46875 L 1.34375 -0.53125 C 1.34375 -0.203125 1.453125 0 1.875 0 L 10.046875 0 C 10.46875 0 10.578125 -0.203125 10.578125 -0.53125 L 10.578125 -2.03125 C 10.578125 -2.359375 10.46875 -2.546875 10.046875 -2.546875 Z M 10.046875 -2.546875 "/></g></g></g><g fill="#000000" fill-opacity="1"><g transform="translate(237.327462, 222.198473)"><g><path d="M 9.90625 -6.21875 C 10.0625 -6.296875 11.234375 -6.875 11.234375 -8.71875 C 11.234375 -10.4375 9.953125 -12.015625 6.984375 -12.015625 L 1.875 -12.015625 C 1.453125 -12.015625 1.34375 -11.8125 1.34375 -11.484375 L 1.34375 -0.53125 C 1.34375 -0.203125 1.453125 0 1.875 0 L 7.234375 0 C 9.78125 0 11.578125 -1.1875 11.578125 -3.5 C 11.578125 -5.46875 10.046875 -6.15625 9.90625 -6.21875 Z M 7.28125 -2.59375 L 4.21875 -2.59375 L 4.21875 -9.453125 L 6.984375 -9.453125 C 7.9375 -9.453125 8.5 -9.25 8.5 -8.421875 C 8.5 -7.71875 8.046875 -7.328125 6.984375 -7.328125 L 6.75 -7.328125 C 6.328125 -7.328125 6.21875 -7.125 6.21875 -6.796875 L 6.21875 -5.421875 C 6.21875 -5.09375 6.328125 -4.890625 6.75 -4.890625 L 7.171875 -4.890625 C 8.046875 -4.890625 8.671875 -4.625 8.671875 -3.78125 C 8.671875 -2.953125 8.171875 -2.59375 7.28125 -2.59375 Z M 7.28125 -2.59375 "/></g></g></g><g fill="#000000" fill-opacity="1"><g transform="translate(249.84637, 222.198473)"><g><path d="M 7 -6.96875 C 6.265625 -7.25 3.59375 -7.65625 3.59375 -8.765625 C 3.59375 -9.59375 4.59375 -9.828125 5.203125 -9.828125 C 5.75 -9.828125 6.40625 -9.671875 6.75 -9.34375 C 6.96875 -9.125 7.0625 -8.96875 7.125 -8.78125 C 7.21875 -8.546875 7.28125 -8.296875 7.625 -8.296875 L 9.40625 -8.296875 C 9.828125 -8.296875 9.9375 -8.375 9.9375 -8.8125 C 9.9375 -11.21875 7.40625 -12.265625 5.09375 -12.265625 C 2.8125 -12.1875 0.65625 -11.015625 0.65625 -8.640625 C 0.65625 -6.328125 2.359375 -5.59375 4.1875 -5.015625 C 5.75 -4.515625 7.359375 -4.5 7.359375 -3.484375 C 7.359375 -2.46875 6.5625 -2.25 5.578125 -2.25 C 4.90625 -2.25 4.15625 -2.40625 3.796875 -2.84375 C 3.5625 -3.125 3.46875 -3.359375 3.453125 -3.59375 C 3.40625 -4.046875 3.203125 -4.109375 2.796875 -4.109375 L 1.015625 -4.109375 C 0.609375 -4.109375 0.5 -4.015625 0.5 -3.59375 C 0.5 -1.046875 3.125 0.28125 5.390625 0.28125 C 8.203125 0.28125 10.25 -0.96875 10.25 -3.5625 C 10.25 -6.03125 8.3125 -6.5625 7 -6.96875 Z M 7 -6.96875 "/></g></g></g><g fill="#000000" fill-opacity="1"><g transform="translate(260.871024, 222.198473)"><g><path d="M 6.5625 -2.5 L 5.421875 -2.5 L 5.421875 -9.46875 L 6.515625 -9.46875 C 6.921875 -9.46875 7.03125 -9.671875 7.03125 -10 L 7.03125 -11.46875 C 7.03125 -11.796875 6.921875 -12 6.515625 -12 L 1.4375 -12 C 1.015625 -12 0.90625 -11.796875 0.90625 -11.46875 L 0.90625 -10 C 0.90625 -9.671875 1.015625 -9.46875 1.4375 -9.46875 L 2.546875 -9.46875 L 2.546875 -2.5 L 1.40625 -2.5 C 0.984375 -2.5 0.875 -2.296875 0.875 -1.96875 L 0.875 -0.53125 C 0.875 -0.203125 0.984375 0 1.40625 0 L 6.5625 0 C 6.984375 0 7.09375 -0.203125 7.09375 -0.53125 L 7.09375 -1.96875 C 7.09375 -2.296875 6.984375 -2.5 6.5625 -2.5 Z M 6.5625 -2.5 "/></g></g></g><g fill="#000000" fill-opacity="1"><g transform="translate(268.961848, 222.198473)"><g><path d="M 9.46875 -12 L 1 -12 C 0.578125 -12 0.46875 -11.796875 0.46875 -11.46875 L 0.46875 -9.953125 C 0.46875 -9.625 0.578125 -9.421875 1 -9.421875 L 3.8125 -9.421875 L 3.8125 -0.53125 C 3.8125 -0.109375 4.015625 0 4.34375 0 L 6.140625 0 C 6.46875 0 6.671875 -0.109375 6.671875 -0.53125 L 6.671875 -9.421875 L 9.46875 -9.421875 C 9.890625 -9.421875 10 -9.625 10 -9.953125 L 10 -11.46875 C 10 -11.796875 9.890625 -12 9.46875 -12 Z M 9.46875 -12 "/></g></g></g><g fill="#000000" fill-opacity="1"><g transform="translate(279.421587, 222.198473)"><g><path d="M 10.046875 -2.546875 L 4.234375 -2.546875 L 4.234375 -4.953125 L 9.125 -4.953125 C 9.53125 -4.953125 9.640625 -5.15625 9.640625 -5.484375 L 9.640625 -6.90625 C 9.640625 -7.234375 9.53125 -7.4375 9.125 -7.4375 L 4.234375 -7.4375 L 4.234375 -9.421875 L 9.734375 -9.421875 C 10.15625 -9.421875 10.265625 -9.625 10.265625 -9.953125 L 10.265625 -11.46875 C 10.265625 -11.796875 10.15625 -12 9.734375 -12 L 1.875 -12 C 1.453125 -12 1.34375 -11.796875 1.34375 -11.46875 L 1.34375 -0.53125 C 1.34375 -0.203125 1.453125 0 1.875 0 L 10.046875 0 C 10.46875 0 10.578125 -0.203125 10.578125 -0.53125 L 10.578125 -2.03125 C 10.578125 -2.359375 10.46875 -2.546875 10.046875 -2.546875 Z M 10.046875 -2.546875 "/></g></g></g><g fill="#000000" fill-opacity="1"><g transform="translate(290.847138, 222.198473)"><g><path d="M 7 -6.96875 C 6.265625 -7.25 3.59375 -7.65625 3.59375 -8.765625 C 3.59375 -9.59375 4.59375 -9.828125 5.203125 -9.828125 C 5.75 -9.828125 6.40625 -9.671875 6.75 -9.34375 C 6.96875 -9.125 7.0625 -8.96875 7.125 -8.78125 C 7.21875 -8.546875 7.28125 -8.296875 7.625 -8.296875 L 9.40625 -8.296875 C 9.828125 -8.296875 9.9375 -8.375 9.9375 -8.8125 C 9.9375 -11.21875 7.40625 -12.265625 5.09375 -12.265625 C 2.8125 -12.1875 0.65625 -11.015625 0.65625 -8.640625 C 0.65625 -6.328125 2.359375 -5.59375 4.1875 -5.015625 C 5.75 -4.515625 7.359375 -4.5 7.359375 -3.484375 C 7.359375 -2.46875 6.5625 -2.25 5.578125 -2.25 C 4.90625 -2.25 4.15625 -2.40625 3.796875 -2.84375 C 3.5625 -3.125 3.46875 -3.359375 3.453125 -3.59375 C 3.40625 -4.046875 3.203125 -4.109375 2.796875 -4.109375 L 1.015625 -4.109375 C 0.609375 -4.109375 0.5 -4.015625 0.5 -3.59375 C 0.5 -1.046875 3.125 0.28125 5.390625 0.28125 C 8.203125 0.28125 10.25 -0.96875 10.25 -3.5625 C 10.25 -6.03125 8.3125 -6.5625 7 -6.96875 Z M 7 -6.96875 "/></g></g></g></svg>